<svg width="850" height="232" viewBox="0 0 850 232" fill="none" xmlns="http://www.w3.org/2000/svg" role="img" aria-label="Contribution landscape — 1983 contributions in the last year; each peak is one week, taller means more contributions">
  <defs>
    <clipPath id="scene"><rect x="6" y="6" width="838" height="220" rx="10"/></clipPath>
    <clipPath id="mt"><path d="M 36 194 L 36.0 137.4 L 51.0 114.3 L 65.9 122.7 L 80.9 66.1 L 95.8 97.5 L 110.8 97.5 L 125.8 76.6 L 140.7 76.6 L 155.7 76.6 L 170.7 68.2 L 185.6 72.4 L 200.6 87.1 L 215.5 78.7 L 230.5 110.1 L 245.5 116.4 L 260.4 103.8 L 275.4 139.5 L 290.3 112.2 L 305.3 154.2 L 320.3 168.8 L 335.2 158.4 L 350.2 162.5 L 365.2 175.1 L 380.1 166.7 L 395.1 166.7 L 410.0 175.1 L 425.0 160.5 L 440.0 168.8 L 454.9 139.5 L 469.9 110.1 L 484.8 116.4 L 499.8 120.6 L 514.8 66.1 L 529.7 118.5 L 544.7 101.7 L 559.7 101.7 L 574.6 64.0 L 589.6 64.0 L 604.5 82.9 L 619.5 76.6 L 634.5 70.3 L 649.4 97.5 L 664.4 82.9 L 679.3 97.5 L 694.3 89.2 L 709.3 122.7 L 724.2 124.8 L 739.2 110.1 L 754.2 143.7 L 769.1 143.7 L 784.1 160.5 L 799.0 162.5 L 814.0 145.8 L 814 194 Z"/></clipPath>
    <linearGradient id="mg" x1="0" y1="0" x2="0" y2="1"><stop offset="0" stop-color="#141B24"/><stop offset="1" stop-color="#0A0E13"/></linearGradient>
    <style>
    .sn{animation-name:fall;animation-timing-function:linear;animation-iteration-count:infinite}@keyframes fall{0%{transform:translateY(-12px);opacity:0}14%{opacity:.6}86%{opacity:.6}100%{transform:translateY(58px);opacity:0}}
    .cap{font:700 12px 'Segoe UI', Ubuntu, 'Helvetica Neue', Sans-Serif;fill:#C9D1D9;letter-spacing:2.4px}
    .sub{font:400 10.5px 'Segoe UI', Ubuntu, 'Helvetica Neue', Sans-Serif;fill:#8B949E;letter-spacing:.3px}
    .tot{font:700 12px 'Segoe UI', Ubuntu, 'Helvetica Neue', Sans-Serif;fill:#C9D1D9;letter-spacing:.3px}
    .mo{font:500 9.5px 'Segoe UI', Ubuntu, 'Helvetica Neue', Sans-Serif;fill:#8B949E;letter-spacing:.6px}
    .pk{font:600 9.5px 'Segoe UI', Ubuntu, 'Helvetica Neue', Sans-Serif;fill:#8AA6C8;letter-spacing:.3px}
    </style>
  </defs>
  <rect width="850" height="232" fill="#0D1117"/>
  <g clip-path="url(#scene)">
    <rect x="6" y="6" width="838" height="220" fill="#0B0F15"/>
    <circle class="sn" cx="653.7" cy="43.3" r="1.11" fill="#DCE3EC" opacity="0.31" style="animation-duration:7.3s;animation-delay:-3.9s"/><circle class="sn" cx="41.8" cy="38.6" r="0.93" fill="#DCE3EC" opacity="0.29" style="animation-duration:10.7s;animation-delay:-2.9s"/><circle class="sn" cx="666.3" cy="66.5" r="0.96" fill="#DCE3EC" opacity="0.26" style="animation-duration:12.1s;animation-delay:-7.2s"/><circle class="sn" cx="488.9" cy="23.2" r="0.88" fill="#DCE3EC" opacity="0.32" style="animation-duration:9.1s;animation-delay:-8.8s"/><circle class="sn" cx="769.8" cy="52.2" r="0.85" fill="#DCE3EC" opacity="0.35" style="animation-duration:10.5s;animation-delay:-6.3s"/><circle class="sn" cx="631.7" cy="28.1" r="1.37" fill="#DCE3EC" opacity="0.42" style="animation-duration:9.6s;animation-delay:-2.9s"/><circle class="sn" cx="756.7" cy="58.8" r="1.25" fill="#DCE3EC" opacity="0.29" style="animation-duration:6.9s;animation-delay:-8.3s"/><circle class="sn" cx="266.1" cy="12.8" r="1.17" fill="#DCE3EC" opacity="0.25" style="animation-duration:10.0s;animation-delay:-12.8s"/><circle class="sn" cx="610.6" cy="64.8" r="0.81" fill="#DCE3EC" opacity="0.31" style="animation-duration:12.9s;animation-delay:-7.1s"/><circle class="sn" cx="629.3" cy="47.7" r="1.35" fill="#DCE3EC" opacity="0.26" style="animation-duration:9.6s;animation-delay:-4.6s"/><circle class="sn" cx="252.7" cy="22.0" r="1.05" fill="#DCE3EC" opacity="0.32" style="animation-duration:10.4s;animation-delay:-12.6s"/><circle class="sn" cx="809.1" cy="16.2" r="1.35" fill="#DCE3EC" opacity="0.34" style="animation-duration:12.7s;animation-delay:-11.6s"/><circle class="sn" cx="551.3" cy="40.7" r="1.34" fill="#DCE3EC" opacity="0.27" style="animation-duration:6.9s;animation-delay:-6.2s"/><circle class="sn" cx="140.3" cy="42.7" r="1.41" fill="#DCE3EC" opacity="0.30" style="animation-duration:7.8s;animation-delay:-9.7s"/><circle class="sn" cx="303.8" cy="69.4" r="1.56" fill="#DCE3EC" opacity="0.37" style="animation-duration:8.5s;animation-delay:-5.6s"/><circle class="sn" cx="441.6" cy="42.2" r="1.26" fill="#DCE3EC" opacity="0.26" style="animation-duration:11.6s;animation-delay:-4.4s"/><circle class="sn" cx="458.5" cy="26.6" r="1.09" fill="#DCE3EC" opacity="0.26" style="animation-duration:9.0s;animation-delay:-3.7s"/><circle class="sn" cx="599.7" cy="35.5" r="1.22" fill="#DCE3EC" opacity="0.43" style="animation-duration:12.2s;animation-delay:-10.7s"/><circle class="sn" cx="575.7" cy="60.6" r="0.76" fill="#DCE3EC" opacity="0.46" style="animation-duration:6.0s;animation-delay:-6.1s"/><circle class="sn" cx="628.5" cy="16.5" r="0.96" fill="#DCE3EC" opacity="0.30" style="animation-duration:10.4s;animation-delay:-7.5s"/><circle class="sn" cx="259.2" cy="45.6" r="1.57" fill="#DCE3EC" opacity="0.40" style="animation-duration:7.6s;animation-delay:-1.0s"/><circle class="sn" cx="605.0" cy="26.7" r="1.17" fill="#DCE3EC" opacity="0.24" style="animation-duration:11.4s;animation-delay:-4.3s"/><circle class="sn" cx="558.0" cy="55.4" r="0.90" fill="#DCE3EC" opacity="0.40" style="animation-duration:8.5s;animation-delay:-1.2s"/><circle class="sn" cx="427.7" cy="55.5" r="1.12" fill="#DCE3EC" opacity="0.48" style="animation-duration:7.1s;animation-delay:-12.6s"/>
    <path d="M 36 194 L 36.0 142.7 L 51.0 137.8 L 65.9 114.0 L 80.9 108.5 L 95.8 100.1 L 110.8 103.6 L 125.8 96.6 L 140.7 89.6 L 155.7 86.8 L 170.7 85.4 L 185.6 88.9 L 200.6 92.4 L 215.5 105.0 L 230.5 114.7 L 245.5 123.1 L 260.4 132.9 L 275.4 131.5 L 290.3 148.3 L 305.3 158.1 L 320.3 173.5 L 335.2 176.2 L 350.2 178.3 L 365.2 181.1 L 380.1 182.5 L 395.1 182.5 L 410.0 180.4 L 425.0 181.1 L 440.0 169.3 L 454.9 152.5 L 469.9 135.0 L 484.8 128.7 L 499.8 114.0 L 514.8 114.7 L 529.7 108.5 L 544.7 120.3 L 559.7 102.2 L 574.6 89.6 L 589.6 83.3 L 604.5 87.5 L 619.5 89.6 L 634.5 94.5 L 649.4 96.6 L 664.4 105.7 L 679.3 102.9 L 694.3 116.1 L 709.3 125.2 L 724.2 132.2 L 739.2 139.2 L 754.2 145.5 L 769.1 162.3 L 784.1 168.6 L 799.0 169.3 L 814.0 164.4 L 814 194 Z" fill="#0E141C"/>
    <path d="M 36 194 L 36.0 137.4 L 51.0 114.3 L 65.9 122.7 L 80.9 66.1 L 95.8 97.5 L 110.8 97.5 L 125.8 76.6 L 140.7 76.6 L 155.7 76.6 L 170.7 68.2 L 185.6 72.4 L 200.6 87.1 L 215.5 78.7 L 230.5 110.1 L 245.5 116.4 L 260.4 103.8 L 275.4 139.5 L 290.3 112.2 L 305.3 154.2 L 320.3 168.8 L 335.2 158.4 L 350.2 162.5 L 365.2 175.1 L 380.1 166.7 L 395.1 166.7 L 410.0 175.1 L 425.0 160.5 L 440.0 168.8 L 454.9 139.5 L 469.9 110.1 L 484.8 116.4 L 499.8 120.6 L 514.8 66.1 L 529.7 118.5 L 544.7 101.7 L 559.7 101.7 L 574.6 64.0 L 589.6 64.0 L 604.5 82.9 L 619.5 76.6 L 634.5 70.3 L 649.4 97.5 L 664.4 82.9 L 679.3 97.5 L 694.3 89.2 L 709.3 122.7 L 724.2 124.8 L 739.2 110.1 L 754.2 143.7 L 769.1 143.7 L 784.1 160.5 L 799.0 162.5 L 814.0 145.8 L 814 194 Z" fill="url(#mg)"/>
    <rect x="36" y="48" width="778" height="55.0" fill="#3A434F" clip-path="url(#mt)"/>
    <path d="M 36.0 137.4 L 51.0 114.3 L 65.9 122.7 L 80.9 66.1 L 95.8 97.5 L 110.8 97.5 L 125.8 76.6 L 140.7 76.6 L 155.7 76.6 L 170.7 68.2 L 185.6 72.4 L 200.6 87.1 L 215.5 78.7 L 230.5 110.1 L 245.5 116.4 L 260.4 103.8 L 275.4 139.5 L 290.3 112.2 L 305.3 154.2 L 320.3 168.8 L 335.2 158.4 L 350.2 162.5 L 365.2 175.1 L 380.1 166.7 L 395.1 166.7 L 410.0 175.1 L 425.0 160.5 L 440.0 168.8 L 454.9 139.5 L 469.9 110.1 L 484.8 116.4 L 499.8 120.6 L 514.8 66.1 L 529.7 118.5 L 544.7 101.7 L 559.7 101.7 L 574.6 64.0 L 589.6 64.0 L 604.5 82.9 L 619.5 76.6 L 634.5 70.3 L 649.4 97.5 L 664.4 82.9 L 679.3 97.5 L 694.3 89.2 L 709.3 122.7 L 724.2 124.8 L 739.2 110.1 L 754.2 143.7 L 769.1 143.7 L 784.1 160.5 L 799.0 162.5 L 814.0 145.8" fill="none" stroke="#59636F" stroke-width="1"/>
    <circle cx="574.6" cy="64.0" r="2.2" fill="#6C90C0"/><text class="pk" x="574.6" y="56.0" text-anchor="middle">62/wk</text>
    <line x1="36" y1="194" x2="814" y2="194" stroke="#8B949E" stroke-opacity="0.28"/>
    <line x1="36.0" y1="194" x2="36.0" y2="198" stroke="#8B949E" stroke-opacity="0.3"/><line x1="65.9" y1="194" x2="65.9" y2="198" stroke="#8B949E" stroke-opacity="0.3"/><line x1="140.7" y1="194" x2="140.7" y2="198" stroke="#8B949E" stroke-opacity="0.3"/><line x1="200.6" y1="194" x2="200.6" y2="198" stroke="#8B949E" stroke-opacity="0.3"/><line x1="260.4" y1="194" x2="260.4" y2="198" stroke="#8B949E" stroke-opacity="0.3"/><line x1="335.2" y1="194" x2="335.2" y2="198" stroke="#8B949E" stroke-opacity="0.3"/><line x1="395.1" y1="194" x2="395.1" y2="198" stroke="#8B949E" stroke-opacity="0.3"/><line x1="454.9" y1="194" x2="454.9" y2="198" stroke="#8B949E" stroke-opacity="0.3"/><line x1="514.8" y1="194" x2="514.8" y2="198" stroke="#8B949E" stroke-opacity="0.3"/><line x1="589.6" y1="194" x2="589.6" y2="198" stroke="#8B949E" stroke-opacity="0.3"/><line x1="649.4" y1="194" x2="649.4" y2="198" stroke="#8B949E" stroke-opacity="0.3"/><line x1="724.2" y1="194" x2="724.2" y2="198" stroke="#8B949E" stroke-opacity="0.3"/><line x1="784.1" y1="194" x2="784.1" y2="198" stroke="#8B949E" stroke-opacity="0.3"/>
  </g>
  <rect x="6.5" y="6.5" width="837" height="219" rx="10" fill="none" stroke="#8B949E" stroke-opacity="0.3"/>
  <path d="M 19 6 L 6 6 L 6 19" stroke="#6C90C0" stroke-width="1.5" fill="none" opacity="0.7"/><path d="M 831 6 L 844 6 L 844 19" stroke="#6C90C0" stroke-width="1.5" fill="none" opacity="0.7"/><path d="M 19 226 L 6 226 L 6 213" stroke="#6C90C0" stroke-width="1.5" fill="none" opacity="0.7"/><path d="M 831 226 L 844 226 L 844 213" stroke="#6C90C0" stroke-width="1.5" fill="none" opacity="0.7"/>
  <text class="cap" x="36" y="28">CONTRIBUTION LANDSCAPE</text>
  <text class="sub" x="36" y="45">each peak = one week · height = contributions that week</text>
  <text class="tot" x="814" y="28" text-anchor="end">1983 contributions</text>
  <text class="sub" x="814" y="45" text-anchor="end">last 12 months</text>
  <text class="mo" x="46.0" y="213" text-anchor="middle">Jul</text><text class="mo" x="65.9" y="213" text-anchor="middle">Aug</text><text class="mo" x="140.7" y="213" text-anchor="middle">Sep</text><text class="mo" x="200.6" y="213" text-anchor="middle">Oct</text><text class="mo" x="260.4" y="213" text-anchor="middle">Nov</text><text class="mo" x="335.2" y="213" text-anchor="middle">Dec</text><text class="mo" x="395.1" y="213" text-anchor="middle">Jan</text><text class="mo" x="454.9" y="213" text-anchor="middle">Feb</text><text class="mo" x="514.8" y="213" text-anchor="middle">Mar</text><text class="mo" x="589.6" y="213" text-anchor="middle">Apr</text><text class="mo" x="649.4" y="213" text-anchor="middle">May</text><text class="mo" x="724.2" y="213" text-anchor="middle">Jun</text><text class="mo" x="784.1" y="213" text-anchor="middle">Jul</text>
</svg>