<svg width="850" height="214" viewBox="0 0 850 214" fill="none" xmlns="http://www.w3.org/2000/svg" role="img" aria-label="Contribution landscape — 2081 contributions in the last year">
  <defs>
    <clipPath id="scene"><rect x="6" y="6" width="838" height="202" rx="10"/></clipPath>
    <clipPath id="mt"><path d="M 34 184 L 34.0 125.5 L 49.3 87.8 L 64.7 108.6 L 80.0 70.9 L 95.3 104.8 L 110.7 84.1 L 126.0 76.5 L 141.3 87.8 L 156.7 52.0 L 172.0 93.5 L 187.3 80.3 L 202.7 97.3 L 218.0 99.1 L 233.3 102.9 L 248.7 93.5 L 264.0 102.9 L 279.3 123.7 L 294.7 136.9 L 310.0 148.2 L 325.3 144.4 L 340.7 153.8 L 356.0 150.1 L 371.3 133.1 L 386.7 150.1 L 402.0 136.9 L 417.3 165.1 L 432.7 157.6 L 448.0 133.1 L 463.3 129.3 L 478.7 138.7 L 494.0 114.2 L 509.3 110.5 L 524.7 112.3 L 540.0 91.6 L 555.3 91.6 L 570.7 84.1 L 586.0 70.9 L 601.3 82.2 L 616.7 80.3 L 632.0 80.3 L 647.3 80.3 L 662.7 76.5 L 678.0 74.6 L 693.3 74.6 L 708.7 91.6 L 724.0 87.8 L 739.3 125.5 L 754.7 121.8 L 770.0 108.6 L 785.3 138.7 L 800.7 131.2 L 816.0 146.3 L 816 184 Z"/></clipPath>
    <linearGradient id="mg" x1="0" y1="0" x2="0" y2="1"><stop offset="0" stop-color="#141B24"/><stop offset="1" stop-color="#0A0E13"/></linearGradient>
    <style>
    .sn{animation-name:fall;animation-timing-function:linear;animation-iteration-count:infinite}@keyframes fall{0%{transform:translateY(-12px);opacity:0}14%{opacity:.6}86%{opacity:.6}100%{transform:translateY(58px);opacity:0}}
    .cap{font:600 11px 'Segoe UI', Ubuntu, 'Helvetica Neue', Sans-Serif;fill:#8B949E;letter-spacing:2px}.tot{font:700 12px 'Segoe UI', Ubuntu, 'Helvetica Neue', Sans-Serif;fill:#C9D1D9;letter-spacing:.3px}
    </style>
  </defs>
  <rect width="850" height="214" fill="#0D1117"/>
  <g clip-path="url(#scene)">
    <rect x="6" y="6" width="838" height="202" fill="#0B0F15"/>
    <circle class="sn" cx="797.5" cy="16.8" r="1.39" fill="#DCE3EC" opacity="0.33" style="animation-duration:11.8s;animation-delay:-10.4s"/><circle class="sn" cx="41.0" cy="24.3" r="1.53" fill="#DCE3EC" opacity="0.41" style="animation-duration:6.2s;animation-delay:-6.0s"/><circle class="sn" cx="775.4" cy="46.0" r="1.20" fill="#DCE3EC" opacity="0.29" style="animation-duration:9.9s;animation-delay:-8.3s"/><circle class="sn" cx="783.6" cy="22.0" r="1.22" fill="#DCE3EC" opacity="0.46" style="animation-duration:10.5s;animation-delay:-10.1s"/><circle class="sn" cx="523.1" cy="21.8" r="0.92" fill="#DCE3EC" opacity="0.31" style="animation-duration:11.0s;animation-delay:-8.4s"/><circle class="sn" cx="192.0" cy="60.0" r="1.46" fill="#DCE3EC" opacity="0.24" style="animation-duration:9.1s;animation-delay:-3.5s"/><circle class="sn" cx="548.9" cy="37.3" r="1.32" fill="#DCE3EC" opacity="0.43" style="animation-duration:12.5s;animation-delay:-11.1s"/><circle class="sn" cx="292.7" cy="27.4" r="1.11" fill="#DCE3EC" opacity="0.47" style="animation-duration:8.7s;animation-delay:-4.9s"/><circle class="sn" cx="616.9" cy="25.2" r="1.28" fill="#DCE3EC" opacity="0.44" style="animation-duration:11.4s;animation-delay:-7.3s"/><circle class="sn" cx="475.0" cy="50.6" r="1.51" fill="#DCE3EC" opacity="0.40" style="animation-duration:7.1s;animation-delay:-0.8s"/><circle class="sn" cx="810.7" cy="52.5" r="0.85" fill="#DCE3EC" opacity="0.27" style="animation-duration:7.5s;animation-delay:-11.4s"/><circle class="sn" cx="483.4" cy="27.6" r="0.83" fill="#DCE3EC" opacity="0.38" style="animation-duration:8.3s;animation-delay:-10.5s"/><circle class="sn" cx="822.8" cy="13.4" r="1.36" fill="#DCE3EC" opacity="0.28" style="animation-duration:11.9s;animation-delay:-6.0s"/><circle class="sn" cx="186.0" cy="33.7" r="0.84" fill="#DCE3EC" opacity="0.47" style="animation-duration:10.9s;animation-delay:-7.6s"/><circle class="sn" cx="171.0" cy="50.1" r="1.50" fill="#DCE3EC" opacity="0.25" style="animation-duration:12.7s;animation-delay:-4.2s"/><circle class="sn" cx="316.8" cy="59.6" r="0.91" fill="#DCE3EC" opacity="0.40" style="animation-duration:12.0s;animation-delay:-10.6s"/><circle class="sn" cx="33.9" cy="42.6" r="0.97" fill="#DCE3EC" opacity="0.35" style="animation-duration:8.4s;animation-delay:-10.7s"/><circle class="sn" cx="402.1" cy="56.2" r="0.98" fill="#DCE3EC" opacity="0.31" style="animation-duration:11.9s;animation-delay:-9.5s"/><circle class="sn" cx="537.3" cy="27.9" r="1.02" fill="#DCE3EC" opacity="0.28" style="animation-duration:12.7s;animation-delay:-2.6s"/><circle class="sn" cx="402.4" cy="39.1" r="0.81" fill="#DCE3EC" opacity="0.30" style="animation-duration:10.0s;animation-delay:-8.3s"/><circle class="sn" cx="406.3" cy="58.7" r="1.39" fill="#DCE3EC" opacity="0.49" style="animation-duration:7.5s;animation-delay:-8.7s"/><circle class="sn" cx="535.9" cy="44.8" r="1.13" fill="#DCE3EC" opacity="0.44" style="animation-duration:10.0s;animation-delay:-6.8s"/><circle class="sn" cx="226.8" cy="36.7" r="0.82" fill="#DCE3EC" opacity="0.27" style="animation-duration:9.9s;animation-delay:-11.4s"/><circle class="sn" cx="484.3" cy="19.8" r="1.57" fill="#DCE3EC" opacity="0.44" style="animation-duration:11.1s;animation-delay:-11.7s"/>
    <path d="M 34 184 L 34.0 126.0 L 49.3 120.3 L 64.7 102.1 L 80.0 107.7 L 95.3 99.6 L 110.7 101.5 L 126.0 95.8 L 141.3 85.1 L 156.7 90.8 L 172.0 88.3 L 187.3 103.3 L 202.7 105.2 L 218.0 112.8 L 233.3 111.5 L 248.7 112.8 L 264.0 119.7 L 279.3 134.1 L 294.7 149.2 L 310.0 156.1 L 325.3 161.8 L 340.7 162.4 L 356.0 158.7 L 371.3 157.4 L 386.7 153.0 L 402.0 163.7 L 417.3 166.2 L 432.7 164.9 L 448.0 153.0 L 463.3 146.7 L 478.7 140.4 L 494.0 134.1 L 509.3 125.3 L 524.7 117.8 L 540.0 111.5 L 555.3 102.1 L 570.7 95.2 L 586.0 92.0 L 601.3 90.8 L 616.7 93.9 L 632.0 93.3 L 647.3 92.0 L 662.7 90.1 L 678.0 88.3 L 693.3 93.3 L 708.7 97.7 L 724.0 114.7 L 739.3 124.7 L 754.7 131.6 L 770.0 136.0 L 785.3 139.2 L 800.7 151.7 L 816.0 154.3 L 816 184 Z" fill="#0E141C"/>
    <path d="M 34 184 L 34.0 125.5 L 49.3 87.8 L 64.7 108.6 L 80.0 70.9 L 95.3 104.8 L 110.7 84.1 L 126.0 76.5 L 141.3 87.8 L 156.7 52.0 L 172.0 93.5 L 187.3 80.3 L 202.7 97.3 L 218.0 99.1 L 233.3 102.9 L 248.7 93.5 L 264.0 102.9 L 279.3 123.7 L 294.7 136.9 L 310.0 148.2 L 325.3 144.4 L 340.7 153.8 L 356.0 150.1 L 371.3 133.1 L 386.7 150.1 L 402.0 136.9 L 417.3 165.1 L 432.7 157.6 L 448.0 133.1 L 463.3 129.3 L 478.7 138.7 L 494.0 114.2 L 509.3 110.5 L 524.7 112.3 L 540.0 91.6 L 555.3 91.6 L 570.7 84.1 L 586.0 70.9 L 601.3 82.2 L 616.7 80.3 L 632.0 80.3 L 647.3 80.3 L 662.7 76.5 L 678.0 74.6 L 693.3 74.6 L 708.7 91.6 L 724.0 87.8 L 739.3 125.5 L 754.7 121.8 L 770.0 108.6 L 785.3 138.7 L 800.7 131.2 L 816.0 146.3 L 816 184 Z" fill="url(#mg)"/>
    <rect x="34" y="36" width="782" height="55.6" fill="#3A434F" clip-path="url(#mt)"/>
    <path d="M 34.0 125.5 L 49.3 87.8 L 64.7 108.6 L 80.0 70.9 L 95.3 104.8 L 110.7 84.1 L 126.0 76.5 L 141.3 87.8 L 156.7 52.0 L 172.0 93.5 L 187.3 80.3 L 202.7 97.3 L 218.0 99.1 L 233.3 102.9 L 248.7 93.5 L 264.0 102.9 L 279.3 123.7 L 294.7 136.9 L 310.0 148.2 L 325.3 144.4 L 340.7 153.8 L 356.0 150.1 L 371.3 133.1 L 386.7 150.1 L 402.0 136.9 L 417.3 165.1 L 432.7 157.6 L 448.0 133.1 L 463.3 129.3 L 478.7 138.7 L 494.0 114.2 L 509.3 110.5 L 524.7 112.3 L 540.0 91.6 L 555.3 91.6 L 570.7 84.1 L 586.0 70.9 L 601.3 82.2 L 616.7 80.3 L 632.0 80.3 L 647.3 80.3 L 662.7 76.5 L 678.0 74.6 L 693.3 74.6 L 708.7 91.6 L 724.0 87.8 L 739.3 125.5 L 754.7 121.8 L 770.0 108.6 L 785.3 138.7 L 800.7 131.2 L 816.0 146.3" fill="none" stroke="#59636F" stroke-width="1"/>
    <line x1="34" y1="184" x2="816" y2="184" stroke="#8B949E" stroke-opacity="0.22"/>
  </g>
  <rect x="6.5" y="6.5" width="837" height="201" rx="10" fill="none" stroke="#8B949E" stroke-opacity="0.3"/>
  <path d="M 19 6 L 6 6 L 6 19" stroke="#6C90C0" stroke-width="1.5" fill="none" opacity="0.7"/><path d="M 831 6 L 844 6 L 844 19" stroke="#6C90C0" stroke-width="1.5" fill="none" opacity="0.7"/><path d="M 19 208 L 6 208 L 6 195" stroke="#6C90C0" stroke-width="1.5" fill="none" opacity="0.7"/><path d="M 831 208 L 844 208 L 844 195" stroke="#6C90C0" stroke-width="1.5" fill="none" opacity="0.7"/>
  <text class="cap" x="34" y="30">CONTRIBUTION LANDSCAPE · LAST YEAR</text>
  <text class="tot" x="816" y="30" text-anchor="end">2081 contributions</text>
</svg>