<svg width="850" height="232" viewBox="0 0 850 232" fill="none" xmlns="http://www.w3.org/2000/svg" role="img" aria-label="Contribution landscape — 2008 contributions in the last year; each peak is one week, taller means more contributions">
  <defs>
    <clipPath id="scene"><rect x="6" y="6" width="838" height="220" rx="10"/></clipPath>
    <clipPath id="mt"><path d="M 36 194 L 36.0 153.3 L 51.0 138.7 L 65.9 130.0 L 80.9 137.3 L 95.8 124.2 L 110.8 115.5 L 125.8 124.2 L 140.7 119.8 L 155.7 108.2 L 170.7 98.0 L 185.6 115.5 L 200.6 114.0 L 215.5 131.5 L 230.5 131.5 L 245.5 138.7 L 260.4 122.7 L 275.4 122.7 L 290.3 157.6 L 305.3 160.5 L 320.3 172.2 L 335.2 170.7 L 350.2 162.0 L 365.2 162.0 L 380.1 167.8 L 395.1 169.3 L 410.0 179.5 L 425.0 176.5 L 440.0 160.5 L 454.9 154.7 L 469.9 167.8 L 484.8 135.8 L 499.8 146.0 L 514.8 148.9 L 529.7 130.0 L 544.7 131.5 L 559.7 130.0 L 574.6 122.7 L 589.6 121.3 L 604.5 103.8 L 619.5 116.9 L 634.5 116.9 L 649.4 103.8 L 664.4 106.7 L 679.3 128.5 L 694.3 128.5 L 709.3 137.3 L 724.2 143.1 L 739.2 140.2 L 754.2 153.3 L 769.1 157.6 L 784.1 156.2 L 799.0 160.5 L 814.0 154.7 L 814 194 Z"/></clipPath>
    <linearGradient id="mg" x1="0" y1="0" x2="0" y2="1"><stop offset="0" stop-color="#141B24"/><stop offset="1" stop-color="#0A0E13"/></linearGradient>
    <style>
    .sn{animation-name:fall;animation-timing-function:linear;animation-iteration-count:infinite}@keyframes fall{0%{transform:translateY(-12px);opacity:0}14%{opacity:.6}86%{opacity:.6}100%{transform:translateY(58px);opacity:0}}
    .cap{font:700 12px 'Segoe UI', Ubuntu, 'Helvetica Neue', Sans-Serif;fill:#C9D1D9;letter-spacing:2.4px}
    .sub{font:400 10.5px 'Segoe UI', Ubuntu, 'Helvetica Neue', Sans-Serif;fill:#8B949E;letter-spacing:.3px}
    .tot{font:700 12px 'Segoe UI', Ubuntu, 'Helvetica Neue', Sans-Serif;fill:#C9D1D9;letter-spacing:.3px}
    .mo{font:500 9.5px 'Segoe UI', Ubuntu, 'Helvetica Neue', Sans-Serif;fill:#8B949E;letter-spacing:.6px}
    .pkn{font:700 10px 'Segoe UI', Ubuntu, 'Helvetica Neue', Sans-Serif;fill:#AEC4E0;letter-spacing:.2px}
    </style>
  </defs>
  <rect width="850" height="232" fill="#0D1117"/>
  <g clip-path="url(#scene)">
    <rect x="6" y="6" width="838" height="220" fill="#0B0F15"/>
    <circle class="sn" cx="237.0" cy="21.2" r="1.25" fill="#DCE3EC" opacity="0.36" style="animation-duration:10.2s;animation-delay:-0.8s"/><circle class="sn" cx="273.1" cy="64.4" r="1.30" fill="#DCE3EC" opacity="0.46" style="animation-duration:12.3s;animation-delay:-12.1s"/><circle class="sn" cx="338.2" cy="17.7" r="1.31" fill="#DCE3EC" opacity="0.28" style="animation-duration:13.0s;animation-delay:-1.1s"/><circle class="sn" cx="198.0" cy="52.6" r="1.51" fill="#DCE3EC" opacity="0.46" style="animation-duration:7.7s;animation-delay:-1.1s"/><circle class="sn" cx="671.0" cy="62.7" r="1.45" fill="#DCE3EC" opacity="0.33" style="animation-duration:11.2s;animation-delay:-4.4s"/><circle class="sn" cx="760.7" cy="67.0" r="1.58" fill="#DCE3EC" opacity="0.42" style="animation-duration:8.1s;animation-delay:-10.3s"/><circle class="sn" cx="557.6" cy="68.7" r="1.38" fill="#DCE3EC" opacity="0.45" style="animation-duration:10.5s;animation-delay:-9.5s"/><circle class="sn" cx="545.0" cy="35.5" r="0.99" fill="#DCE3EC" opacity="0.29" style="animation-duration:10.3s;animation-delay:-8.3s"/><circle class="sn" cx="272.1" cy="13.0" r="1.59" fill="#DCE3EC" opacity="0.47" style="animation-duration:11.0s;animation-delay:-5.8s"/><circle class="sn" cx="808.5" cy="65.9" r="1.43" fill="#DCE3EC" opacity="0.38" style="animation-duration:11.5s;animation-delay:-8.7s"/><circle class="sn" cx="598.0" cy="34.0" r="1.04" fill="#DCE3EC" opacity="0.43" style="animation-duration:8.0s;animation-delay:-0.9s"/><circle class="sn" cx="39.5" cy="24.3" r="1.27" fill="#DCE3EC" opacity="0.28" style="animation-duration:9.2s;animation-delay:-6.0s"/><circle class="sn" cx="502.9" cy="14.8" r="0.82" fill="#DCE3EC" opacity="0.32" style="animation-duration:9.4s;animation-delay:-10.5s"/><circle class="sn" cx="530.6" cy="15.2" r="1.51" fill="#DCE3EC" opacity="0.43" style="animation-duration:7.9s;animation-delay:-3.8s"/><circle class="sn" cx="590.2" cy="42.5" r="0.94" fill="#DCE3EC" opacity="0.31" style="animation-duration:7.7s;animation-delay:-1.8s"/><circle class="sn" cx="466.6" cy="45.9" r="1.12" fill="#DCE3EC" opacity="0.32" style="animation-duration:9.9s;animation-delay:-7.5s"/><circle class="sn" cx="421.1" cy="32.7" r="1.07" fill="#DCE3EC" opacity="0.38" style="animation-duration:6.9s;animation-delay:-6.3s"/><circle class="sn" cx="292.0" cy="20.7" r="0.98" fill="#DCE3EC" opacity="0.33" style="animation-duration:12.4s;animation-delay:-3.5s"/><circle class="sn" cx="712.5" cy="42.9" r="1.44" fill="#DCE3EC" opacity="0.34" style="animation-duration:10.1s;animation-delay:-0.6s"/><circle class="sn" cx="364.2" cy="45.1" r="1.32" fill="#DCE3EC" opacity="0.38" style="animation-duration:7.5s;animation-delay:-10.1s"/><circle class="sn" cx="191.3" cy="51.5" r="1.30" fill="#DCE3EC" opacity="0.39" style="animation-duration:11.8s;animation-delay:-9.2s"/><circle class="sn" cx="678.3" cy="43.6" r="1.44" fill="#DCE3EC" opacity="0.30" style="animation-duration:8.9s;animation-delay:-9.1s"/><circle class="sn" cx="184.8" cy="55.0" r="1.58" fill="#DCE3EC" opacity="0.36" style="animation-duration:9.7s;animation-delay:-11.6s"/><circle class="sn" cx="806.1" cy="16.0" r="1.59" fill="#DCE3EC" opacity="0.47" style="animation-duration:6.6s;animation-delay:-11.8s"/>
    <path d="M 36 194 L 36.0 161.4 L 51.0 153.7 L 65.9 148.3 L 80.9 143.5 L 95.8 138.6 L 110.8 134.3 L 125.8 132.8 L 140.7 130.4 L 155.7 121.7 L 170.7 120.2 L 185.6 122.2 L 200.6 133.3 L 215.5 138.6 L 230.5 146.9 L 245.5 144.0 L 260.4 141.1 L 275.4 147.4 L 290.3 160.0 L 305.3 176.5 L 320.3 180.8 L 335.2 181.3 L 350.2 177.9 L 365.2 176.9 L 380.1 179.4 L 395.1 185.2 L 410.0 188.1 L 425.0 185.2 L 440.0 176.9 L 454.9 174.0 L 469.9 165.8 L 484.8 162.9 L 499.8 156.6 L 514.8 154.6 L 529.7 149.8 L 544.7 143.5 L 559.7 141.1 L 574.6 137.7 L 589.6 128.9 L 604.5 127.0 L 619.5 125.5 L 634.5 125.5 L 649.4 122.2 L 664.4 126.0 L 679.3 134.3 L 694.3 144.5 L 709.3 149.3 L 724.2 153.2 L 739.2 158.5 L 754.2 163.4 L 769.1 168.7 L 784.1 171.1 L 799.0 170.2 L 814.0 169.7 L 814 194 Z" fill="#0E141C"/>
    <path d="M 36 194 L 36.0 153.3 L 51.0 138.7 L 65.9 130.0 L 80.9 137.3 L 95.8 124.2 L 110.8 115.5 L 125.8 124.2 L 140.7 119.8 L 155.7 108.2 L 170.7 98.0 L 185.6 115.5 L 200.6 114.0 L 215.5 131.5 L 230.5 131.5 L 245.5 138.7 L 260.4 122.7 L 275.4 122.7 L 290.3 157.6 L 305.3 160.5 L 320.3 172.2 L 335.2 170.7 L 350.2 162.0 L 365.2 162.0 L 380.1 167.8 L 395.1 169.3 L 410.0 179.5 L 425.0 176.5 L 440.0 160.5 L 454.9 154.7 L 469.9 167.8 L 484.8 135.8 L 499.8 146.0 L 514.8 148.9 L 529.7 130.0 L 544.7 131.5 L 559.7 130.0 L 574.6 122.7 L 589.6 121.3 L 604.5 103.8 L 619.5 116.9 L 634.5 116.9 L 649.4 103.8 L 664.4 106.7 L 679.3 128.5 L 694.3 128.5 L 709.3 137.3 L 724.2 143.1 L 739.2 140.2 L 754.2 153.3 L 769.1 157.6 L 784.1 156.2 L 799.0 160.5 L 814.0 154.7 L 814 194 Z" fill="url(#mg)"/>
    <rect x="36" y="80" width="778" height="46.8" fill="#3A434F" clip-path="url(#mt)"/>
    <path d="M 36.0 153.3 L 51.0 138.7 L 65.9 130.0 L 80.9 137.3 L 95.8 124.2 L 110.8 115.5 L 125.8 124.2 L 140.7 119.8 L 155.7 108.2 L 170.7 98.0 L 185.6 115.5 L 200.6 114.0 L 215.5 131.5 L 230.5 131.5 L 245.5 138.7 L 260.4 122.7 L 275.4 122.7 L 290.3 157.6 L 305.3 160.5 L 320.3 172.2 L 335.2 170.7 L 350.2 162.0 L 365.2 162.0 L 380.1 167.8 L 395.1 169.3 L 410.0 179.5 L 425.0 176.5 L 440.0 160.5 L 454.9 154.7 L 469.9 167.8 L 484.8 135.8 L 499.8 146.0 L 514.8 148.9 L 529.7 130.0 L 544.7 131.5 L 559.7 130.0 L 574.6 122.7 L 589.6 121.3 L 604.5 103.8 L 619.5 116.9 L 634.5 116.9 L 649.4 103.8 L 664.4 106.7 L 679.3 128.5 L 694.3 128.5 L 709.3 137.3 L 724.2 143.1 L 739.2 140.2 L 754.2 153.3 L 769.1 157.6 L 784.1 156.2 L 799.0 160.5 L 814.0 154.7" fill="none" stroke="#59636F" stroke-width="1"/>
    <line x1="170.7" y1="98.0" x2="170.7" y2="194" stroke="#6C90C0" stroke-opacity="0.3" stroke-dasharray="2 3"/><line x1="170.7" y1="98.0" x2="170.7" y2="76.0" stroke="#DCE3EC" stroke-width="1.5"/><path d="M 170.7 76.0 L 185.7 81.0 L 170.7 86.0 Z" fill="#6C90C0"/><circle cx="170.7" cy="98.0" r="2.6" fill="#DCE3EC"/><text class="pkn" x="187.7" y="85.0" text-anchor="start">66</text>
    <line x1="36" y1="194" x2="814" y2="194" stroke="#8B949E" stroke-opacity="0.28"/>
    <line x1="36.0" y1="194" x2="36.0" y2="198" stroke="#8B949E" stroke-opacity="0.3"/><line x1="65.9" y1="194" x2="65.9" y2="198" stroke="#8B949E" stroke-opacity="0.3"/><line x1="140.7" y1="194" x2="140.7" y2="198" stroke="#8B949E" stroke-opacity="0.3"/><line x1="200.6" y1="194" x2="200.6" y2="198" stroke="#8B949E" stroke-opacity="0.3"/><line x1="260.4" y1="194" x2="260.4" y2="198" stroke="#8B949E" stroke-opacity="0.3"/><line x1="335.2" y1="194" x2="335.2" y2="198" stroke="#8B949E" stroke-opacity="0.3"/><line x1="395.1" y1="194" x2="395.1" y2="198" stroke="#8B949E" stroke-opacity="0.3"/><line x1="454.9" y1="194" x2="454.9" y2="198" stroke="#8B949E" stroke-opacity="0.3"/><line x1="514.8" y1="194" x2="514.8" y2="198" stroke="#8B949E" stroke-opacity="0.3"/><line x1="589.6" y1="194" x2="589.6" y2="198" stroke="#8B949E" stroke-opacity="0.3"/><line x1="649.4" y1="194" x2="649.4" y2="198" stroke="#8B949E" stroke-opacity="0.3"/><line x1="724.2" y1="194" x2="724.2" y2="198" stroke="#8B949E" stroke-opacity="0.3"/><line x1="784.1" y1="194" x2="784.1" y2="198" stroke="#8B949E" stroke-opacity="0.3"/>
  </g>
  <rect x="6.5" y="6.5" width="837" height="219" rx="10" fill="none" stroke="#8B949E" stroke-opacity="0.3"/>
  <path d="M 19 6 L 6 6 L 6 19" stroke="#6C90C0" stroke-width="1.5" fill="none" opacity="0.7"/><path d="M 831 6 L 844 6 L 844 19" stroke="#6C90C0" stroke-width="1.5" fill="none" opacity="0.7"/><path d="M 19 226 L 6 226 L 6 213" stroke="#6C90C0" stroke-width="1.5" fill="none" opacity="0.7"/><path d="M 831 226 L 844 226 L 844 213" stroke="#6C90C0" stroke-width="1.5" fill="none" opacity="0.7"/>
  <text class="cap" x="36" y="28">CONTRIBUTION LANDSCAPE</text>
  <text class="sub" x="36" y="45">each peak is one week · height = weekly contributions · the flag marks your busiest week</text>
  <text class="tot" x="814" y="28" text-anchor="end">2008 contributions</text>
  <text class="sub" x="814" y="45" text-anchor="end">last 12 months</text>
  <text class="mo" x="46.0" y="213" text-anchor="middle">Jul</text><text class="mo" x="65.9" y="213" text-anchor="middle">Aug</text><text class="mo" x="140.7" y="213" text-anchor="middle">Sep</text><text class="mo" x="200.6" y="213" text-anchor="middle">Oct</text><text class="mo" x="260.4" y="213" text-anchor="middle">Nov</text><text class="mo" x="335.2" y="213" text-anchor="middle">Dec</text><text class="mo" x="395.1" y="213" text-anchor="middle">Jan</text><text class="mo" x="454.9" y="213" text-anchor="middle">Feb</text><text class="mo" x="514.8" y="213" text-anchor="middle">Mar</text><text class="mo" x="589.6" y="213" text-anchor="middle">Apr</text><text class="mo" x="649.4" y="213" text-anchor="middle">May</text><text class="mo" x="724.2" y="213" text-anchor="middle">Jun</text><text class="mo" x="784.1" y="213" text-anchor="middle">Jul</text>
</svg>