<svg width="850" height="60" viewBox="0 0 850 60" xmlns="http://www.w3.org/2000/svg" role="img" aria-label="Contribution Graph">
<defs>
  <clipPath id="scene"><rect x="6" y="6" width="838" height="48" rx="7"/></clipPath>
  <style>.sn{animation-name:fall;animation-timing-function:linear;animation-iteration-count:infinite}@keyframes fall{0%{transform:translateY(-12px);opacity:0}14%{opacity:.6}86%{opacity:.6}100%{transform:translateY(58px);opacity:0}}.k{font-family:'Segoe UI', -apple-system, 'Helvetica Neue', Arial, sans-serif;font-weight:600;font-size:13px;fill:#F0F1F3;letter-spacing:3px}.f{animation:fi .8s ease both}@keyframes fi{from{opacity:0}to{opacity:1}}</style>
</defs>
  <rect width="850" height="60" fill="#0D1117"/>
  <g clip-path="url(#scene)"><rect x="6" y="6" width="838" height="48" fill="#0B0F15"/><circle class="sn" cx="385.4" cy="40.6" r="0.96" fill="#DCE3EC" opacity="0.38" style="animation-duration:11.2s;animation-delay:-1.0s"/><circle class="sn" cx="346.6" cy="45.1" r="1.51" fill="#DCE3EC" opacity="0.31" style="animation-duration:6.3s;animation-delay:-2.7s"/><circle class="sn" cx="517.6" cy="33.6" r="0.82" fill="#DCE3EC" opacity="0.40" style="animation-duration:10.5s;animation-delay:-2.4s"/><circle class="sn" cx="235.4" cy="28.1" r="0.91" fill="#DCE3EC" opacity="0.26" style="animation-duration:11.4s;animation-delay:-2.3s"/><circle class="sn" cx="816.9" cy="14.1" r="0.76" fill="#DCE3EC" opacity="0.46" style="animation-duration:12.3s;animation-delay:-2.0s"/><circle class="sn" cx="200.3" cy="33.1" r="1.64" fill="#DCE3EC" opacity="0.46" style="animation-duration:12.0s;animation-delay:-2.4s"/><circle class="sn" cx="771.9" cy="42.8" r="1.04" fill="#DCE3EC" opacity="0.33" style="animation-duration:11.7s;animation-delay:-1.8s"/><circle class="sn" cx="85.2" cy="12.1" r="1.21" fill="#DCE3EC" opacity="0.48" style="animation-duration:11.0s;animation-delay:-5.0s"/><circle class="sn" cx="712.7" cy="18.3" r="1.34" fill="#DCE3EC" opacity="0.32" style="animation-duration:9.6s;animation-delay:-9.1s"/><circle class="sn" cx="428.0" cy="42.2" r="0.90" fill="#DCE3EC" opacity="0.35" style="animation-duration:12.2s;animation-delay:-3.2s"/><circle class="sn" cx="201.5" cy="30.9" r="1.62" fill="#DCE3EC" opacity="0.25" style="animation-duration:11.0s;animation-delay:-2.4s"/><circle class="sn" cx="20.6" cy="15.4" r="1.07" fill="#DCE3EC" opacity="0.30" style="animation-duration:11.6s;animation-delay:-2.4s"/><circle class="sn" cx="724.4" cy="29.5" r="1.00" fill="#DCE3EC" opacity="0.23" style="animation-duration:7.3s;animation-delay:-12.3s"/><circle class="sn" cx="370.3" cy="38.8" r="1.54" fill="#DCE3EC" opacity="0.39" style="animation-duration:6.3s;animation-delay:-9.0s"/></g>
  <rect x="6.5" y="6.5" width="837" height="47" rx="7" fill="none" stroke="#23262D"/>
  <path d="M 17 6 L 6 6 L 6 17" stroke="#6C90C0" stroke-width="1.5" fill="none" opacity="0.7"/><path d="M 833 6 L 844 6 L 844 17" stroke="#6C90C0" stroke-width="1.5" fill="none" opacity="0.7"/><path d="M 17 54 L 6 54 L 6 43" stroke="#6C90C0" stroke-width="1.5" fill="none" opacity="0.7"/><path d="M 833 54 L 844 54 L 844 43" stroke="#6C90C0" stroke-width="1.5" fill="none" opacity="0.7"/>
  <path class="f" d="M 313.15 26 L 316.15 30 L 313.15 34 L 310.15 30 Z" fill="#6C90C0"/>
  <text class="k f" x="425" y="34.5" text-anchor="middle">CONTRIBUTION GRAPH</text>
  <path class="f" d="M 536.85 26 L 539.85 30 L 536.85 34 L 533.85 30 Z" fill="#6C90C0"/>
</svg>