<svg width="850" height="60" viewBox="0 0 850 60" xmlns="http://www.w3.org/2000/svg" role="img" aria-label="Contribution Graph">
<defs>
  <clipPath id="scene"><rect x="6" y="6" width="838" height="48" rx="7"/></clipPath>
  <style>.sn{animation-name:fall;animation-timing-function:linear;animation-iteration-count:infinite}@keyframes fall{0%{transform:translateY(-12px);opacity:0}14%{opacity:.6}86%{opacity:.6}100%{transform:translateY(58px);opacity:0}}.k{font-family:'Segoe UI', -apple-system, 'Helvetica Neue', Arial, sans-serif;font-weight:600;font-size:13px;fill:#F0F1F3;letter-spacing:3px}.f{animation:fi .8s ease both}@keyframes fi{from{opacity:0}to{opacity:1}}</style>
</defs>
  <rect width="850" height="60" fill="#0D1117"/>
  <g clip-path="url(#scene)"><rect x="6" y="6" width="838" height="48" fill="#0B0F15"/><circle class="sn" cx="191.0" cy="27.0" r="1.42" fill="#DCE3EC" opacity="0.46" style="animation-duration:9.1s;animation-delay:-10.6s"/><circle class="sn" cx="733.4" cy="28.2" r="1.14" fill="#DCE3EC" opacity="0.48" style="animation-duration:9.5s;animation-delay:-11.5s"/><circle class="sn" cx="317.1" cy="35.5" r="1.45" fill="#DCE3EC" opacity="0.41" style="animation-duration:8.3s;animation-delay:-2.3s"/><circle class="sn" cx="124.2" cy="27.2" r="1.13" fill="#DCE3EC" opacity="0.43" style="animation-duration:10.7s;animation-delay:-3.6s"/><circle class="sn" cx="87.3" cy="34.7" r="1.38" fill="#DCE3EC" opacity="0.34" style="animation-duration:8.4s;animation-delay:-5.1s"/><circle class="sn" cx="630.0" cy="25.4" r="0.79" fill="#DCE3EC" opacity="0.32" style="animation-duration:12.4s;animation-delay:-5.5s"/><circle class="sn" cx="623.2" cy="30.1" r="0.72" fill="#DCE3EC" opacity="0.30" style="animation-duration:6.9s;animation-delay:-2.8s"/><circle class="sn" cx="578.8" cy="34.8" r="1.45" fill="#DCE3EC" opacity="0.27" style="animation-duration:11.8s;animation-delay:-2.0s"/><circle class="sn" cx="247.7" cy="17.6" r="1.11" fill="#DCE3EC" opacity="0.37" style="animation-duration:10.3s;animation-delay:-2.1s"/><circle class="sn" cx="765.1" cy="21.2" r="1.05" fill="#DCE3EC" opacity="0.47" style="animation-duration:11.3s;animation-delay:-0.8s"/><circle class="sn" cx="699.1" cy="40.0" r="1.16" fill="#DCE3EC" opacity="0.29" style="animation-duration:9.5s;animation-delay:-10.1s"/><circle class="sn" cx="541.4" cy="32.3" r="1.38" fill="#DCE3EC" opacity="0.28" style="animation-duration:9.2s;animation-delay:-9.0s"/><circle class="sn" cx="385.4" cy="33.7" r="1.04" fill="#DCE3EC" opacity="0.44" style="animation-duration:7.2s;animation-delay:-8.8s"/><circle class="sn" cx="261.4" cy="29.3" r="1.49" fill="#DCE3EC" opacity="0.31" style="animation-duration:10.0s;animation-delay:-5.7s"/></g>
  <rect x="6.5" y="6.5" width="837" height="47" rx="7" fill="none" stroke="#23262D"/>
  <path d="M 17 6 L 6 6 L 6 17" stroke="#6C90C0" stroke-width="1.5" fill="none" opacity="0.7"/><path d="M 833 6 L 844 6 L 844 17" stroke="#6C90C0" stroke-width="1.5" fill="none" opacity="0.7"/><path d="M 17 54 L 6 54 L 6 43" stroke="#6C90C0" stroke-width="1.5" fill="none" opacity="0.7"/><path d="M 833 54 L 844 54 L 844 43" stroke="#6C90C0" stroke-width="1.5" fill="none" opacity="0.7"/>
  <path class="f" d="M 313.15 26 L 316.15 30 L 313.15 34 L 310.15 30 Z" fill="#6C90C0"/>
  <text class="k f" x="425" y="34.5" text-anchor="middle">CONTRIBUTION GRAPH</text>
  <path class="f" d="M 536.85 26 L 539.85 30 L 536.85 34 L 533.85 30 Z" fill="#6C90C0"/>
</svg>