<svg width="850" height="300" viewBox="0 0 850 300" xmlns="http://www.w3.org/2000/svg" role="img" aria-label="Rithvick Kumar — AI/ML, Full-Stack, Backend Engineer">
<defs>
  <clipPath id="scene"><rect x="14" y="14" width="822" height="272" rx="9"/></clipPath>
  <radialGradient id="moon" cx="50%" cy="50%" r="50%"><stop offset="0" stop-color="#20293380"/><stop offset="1" stop-color="#20293300"/></radialGradient>
  <style>
    .f{animation:fi 1s ease both}.d1{animation-delay:.15s}.d2{animation-delay:.35s}.d3{animation-delay:.6s}
    @keyframes fi{from{opacity:0;transform:translateY(7px)}to{opacity:1;transform:none}}
    .sn{animation-name:fall;animation-timing-function:linear;animation-iteration-count:infinite}
    @keyframes fall{0%{transform:translateY(-14px);opacity:0}14%{opacity:.7}86%{opacity:.7}100%{transform:translateY(66px);opacity:0}}
    .kick{font-family:'Segoe UI', -apple-system, 'Helvetica Neue', Arial, sans-serif;font-weight:600;font-size:12px;fill:#7A828E;letter-spacing:3.6px}
    .name{font-family:'Segoe UI', -apple-system, 'Helvetica Neue', Arial, sans-serif;font-weight:600;font-size:56px;fill:#F4F6F8;letter-spacing:-1.2px}
    .tag{font-family:'Segoe UI', -apple-system, 'Helvetica Neue', Arial, sans-serif;font-weight:400;font-size:15.5px;fill:#B7BEC8}
    .sub{font-family:'Segoe UI', -apple-system, 'Helvetica Neue', Arial, sans-serif;font-weight:400;font-size:13px;fill:#828A96;letter-spacing:.3px}
  </style>
</defs>
  <rect width="850" height="300" fill="#0D1117"/>
  <g clip-path="url(#scene)">
    <rect x="14" y="14" width="822" height="272" fill="#0B0F15"/>
    <circle cx="688" cy="74" r="60" fill="url(#moon)"/>
    <circle cx="688" cy="74" r="15" fill="#161C25"/>
    <!-- mountains: back, mid, front(Everest) -->
    <path d="M 14 286 L 14 248 L 150 224 L 300 250 L 470 214 L 620 244 L 760 220 L 836 242 L 836 286 Z" fill="#141A22"/>
    <path d="M 14 286 L 14 262 L 120 244 L 260 266 L 410 240 L 560 262 L 690 244 L 836 264 L 836 286 Z" fill="#10151C"/>
    <path d="M 14 286 L 14 270 L 130 256 L 250 272 L 360 258 L 470 268 L 560 250 L 628 258 L 662 196 L 700 250 L 786 244 L 836 262 L 836 286 Z" fill="#0A0E13"/>
    <path d="M 640 224 L 662 196 L 684 224 L 672 220 L 662 210 L 652 220 Z" fill="#39424E"/>
    <circle class="sn" cx="692.3" cy="29.3" r="1.55" fill="#DCE3EC" opacity="0.52" style="animation-duration:6.2s;animation-delay:-0.3s"/><circle class="sn" cx="675.2" cy="189.6" r="0.96" fill="#DCE3EC" opacity="0.34" style="animation-duration:8.2s;animation-delay:-2.8s"/><circle class="sn" cx="300.6" cy="72.0" r="1.48" fill="#DCE3EC" opacity="0.37" style="animation-duration:12.1s;animation-delay:-5.3s"/><circle class="sn" cx="520.3" cy="227.7" r="1.74" fill="#DCE3EC" opacity="0.62" style="animation-duration:7.9s;animation-delay:-0.0s"/><circle class="sn" cx="812.5" cy="43.6" r="1.05" fill="#DCE3EC" opacity="0.44" style="animation-duration:7.7s;animation-delay:-3.4s"/><circle class="sn" cx="358.4" cy="167.9" r="1.05" fill="#DCE3EC" opacity="0.53" style="animation-duration:11.1s;animation-delay:-10.1s"/><circle class="sn" cx="334.6" cy="200.4" r="1.31" fill="#DCE3EC" opacity="0.67" style="animation-duration:12.3s;animation-delay:-4.5s"/><circle class="sn" cx="49.2" cy="122.7" r="1.47" fill="#DCE3EC" opacity="0.71" style="animation-duration:6.1s;animation-delay:-1.3s"/><circle class="sn" cx="766.4" cy="115.6" r="1.73" fill="#DCE3EC" opacity="0.60" style="animation-duration:7.8s;animation-delay:-6.6s"/><circle class="sn" cx="609.4" cy="145.5" r="1.28" fill="#DCE3EC" opacity="0.68" style="animation-duration:9.4s;animation-delay:-4.4s"/><circle class="sn" cx="611.3" cy="150.7" r="1.10" fill="#DCE3EC" opacity="0.54" style="animation-duration:12.3s;animation-delay:-2.3s"/><circle class="sn" cx="192.7" cy="225.4" r="1.09" fill="#DCE3EC" opacity="0.58" style="animation-duration:8.6s;animation-delay:-9.1s"/><circle class="sn" cx="716.7" cy="211.1" r="1.04" fill="#DCE3EC" opacity="0.51" style="animation-duration:10.1s;animation-delay:-7.1s"/><circle class="sn" cx="589.9" cy="28.5" r="1.50" fill="#DCE3EC" opacity="0.60" style="animation-duration:11.9s;animation-delay:-8.4s"/><circle class="sn" cx="734.6" cy="160.6" r="0.98" fill="#DCE3EC" opacity="0.40" style="animation-duration:9.0s;animation-delay:-10.8s"/><circle class="sn" cx="116.7" cy="135.9" r="1.71" fill="#DCE3EC" opacity="0.43" style="animation-duration:10.3s;animation-delay:-1.0s"/><circle class="sn" cx="134.0" cy="97.9" r="1.50" fill="#DCE3EC" opacity="0.44" style="animation-duration:11.5s;animation-delay:-10.3s"/><circle class="sn" cx="647.6" cy="82.6" r="0.79" fill="#DCE3EC" opacity="0.46" style="animation-duration:10.5s;animation-delay:-5.2s"/><circle class="sn" cx="337.3" cy="159.2" r="1.41" fill="#DCE3EC" opacity="0.71" style="animation-duration:12.1s;animation-delay:-11.6s"/><circle class="sn" cx="450.8" cy="102.8" r="1.80" fill="#DCE3EC" opacity="0.48" style="animation-duration:6.7s;animation-delay:-12.6s"/><circle class="sn" cx="646.0" cy="209.3" r="1.79" fill="#DCE3EC" opacity="0.31" style="animation-duration:9.5s;animation-delay:-12.4s"/><circle class="sn" cx="717.5" cy="208.2" r="1.15" fill="#DCE3EC" opacity="0.51" style="animation-duration:8.5s;animation-delay:-3.7s"/><circle class="sn" cx="479.5" cy="45.4" r="1.33" fill="#DCE3EC" opacity="0.33" style="animation-duration:10.6s;animation-delay:-9.2s"/><circle class="sn" cx="829.5" cy="97.4" r="0.77" fill="#DCE3EC" opacity="0.63" style="animation-duration:12.6s;animation-delay:-2.6s"/><circle class="sn" cx="426.2" cy="101.7" r="1.81" fill="#DCE3EC" opacity="0.66" style="animation-duration:11.2s;animation-delay:-11.0s"/><circle class="sn" cx="316.9" cy="84.1" r="1.50" fill="#DCE3EC" opacity="0.73" style="animation-duration:6.1s;animation-delay:-1.4s"/><circle class="sn" cx="405.7" cy="35.6" r="1.54" fill="#DCE3EC" opacity="0.60" style="animation-duration:11.0s;animation-delay:-10.4s"/><circle class="sn" cx="505.4" cy="172.6" r="1.59" fill="#DCE3EC" opacity="0.72" style="animation-duration:11.4s;animation-delay:-11.2s"/><circle class="sn" cx="413.4" cy="115.0" r="0.81" fill="#DCE3EC" opacity="0.49" style="animation-duration:7.9s;animation-delay:-4.3s"/><circle class="sn" cx="363.3" cy="67.7" r="1.73" fill="#DCE3EC" opacity="0.59" style="animation-duration:9.4s;animation-delay:-3.6s"/><circle class="sn" cx="94.7" cy="21.6" r="1.21" fill="#DCE3EC" opacity="0.66" style="animation-duration:6.8s;animation-delay:-0.6s"/><circle class="sn" cx="464.1" cy="109.0" r="1.79" fill="#DCE3EC" opacity="0.74" style="animation-duration:11.9s;animation-delay:-1.5s"/><circle class="sn" cx="658.2" cy="84.2" r="1.05" fill="#DCE3EC" opacity="0.33" style="animation-duration:8.6s;animation-delay:-0.5s"/><circle class="sn" cx="44.2" cy="67.1" r="1.42" fill="#DCE3EC" opacity="0.55" style="animation-duration:10.7s;animation-delay:-11.1s"/><circle class="sn" cx="830.2" cy="98.4" r="1.10" fill="#DCE3EC" opacity="0.34" style="animation-duration:10.2s;animation-delay:-6.7s"/><circle class="sn" cx="83.9" cy="217.8" r="0.95" fill="#DCE3EC" opacity="0.35" style="animation-duration:8.5s;animation-delay:-1.8s"/><circle class="sn" cx="726.6" cy="56.0" r="1.62" fill="#DCE3EC" opacity="0.42" style="animation-duration:7.3s;animation-delay:-5.7s"/><circle class="sn" cx="734.2" cy="214.5" r="1.54" fill="#DCE3EC" opacity="0.53" style="animation-duration:6.2s;animation-delay:-2.4s"/><circle class="sn" cx="138.5" cy="218.9" r="1.79" fill="#DCE3EC" opacity="0.41" style="animation-duration:9.3s;animation-delay:-10.8s"/><circle class="sn" cx="310.0" cy="139.0" r="1.53" fill="#DCE3EC" opacity="0.67" style="animation-duration:12.4s;animation-delay:-2.8s"/><circle class="sn" cx="113.0" cy="104.8" r="0.71" fill="#DCE3EC" opacity="0.63" style="animation-duration:10.9s;animation-delay:-2.6s"/><circle class="sn" cx="192.5" cy="198.6" r="1.09" fill="#DCE3EC" opacity="0.31" style="animation-duration:6.8s;animation-delay:-0.2s"/><circle class="sn" cx="417.4" cy="106.5" r="1.09" fill="#DCE3EC" opacity="0.72" style="animation-duration:7.6s;animation-delay:-11.5s"/><circle class="sn" cx="762.3" cy="203.8" r="1.78" fill="#DCE3EC" opacity="0.71" style="animation-duration:12.9s;animation-delay:-2.2s"/><circle class="sn" cx="581.6" cy="76.1" r="1.46" fill="#DCE3EC" opacity="0.72" style="animation-duration:6.7s;animation-delay:-1.0s"/><circle class="sn" cx="623.7" cy="157.7" r="0.92" fill="#DCE3EC" opacity="0.39" style="animation-duration:8.9s;animation-delay:-11.0s"/>
  </g>
  <rect x="14.5" y="14.5" width="821" height="271" rx="9" fill="none" stroke="#23262D" stroke-width="1"/>
  <path d="M 30 14 L 14 14 L 14 30" stroke="#6C90C0" stroke-width="1.5" fill="none" opacity="0.7"/>
  <path d="M 820 14 L 836 14 L 836 30" stroke="#6C90C0" stroke-width="1.5" fill="none" opacity="0.7"/>
  <path d="M 30 286 L 14 286 L 14 270" stroke="#6C90C0" stroke-width="1.5" fill="none" opacity="0.7"/>
  <path d="M 820 286 L 836 286 L 836 270" stroke="#6C90C0" stroke-width="1.5" fill="none" opacity="0.7"/>
  <text class="kick f d1" x="425" y="70" text-anchor="middle">AI / ML  ·  FULL-STACK  ·  BACKEND ENGINEER</text>
  <text class="name f d2" x="425" y="128" text-anchor="middle">Rithvick Kumar</text>
  <g class="f d2">
    <line x1="371" y1="152" x2="412" y2="152" stroke="#2E333B" stroke-width="1"/>
    <path d="M 425 148 L 429 152 L 425 156 L 421 152 Z" fill="#6C90C0"/>
    <line x1="438" y1="152" x2="479" y2="152" stroke="#2E333B" stroke-width="1"/>
  </g>
  <text class="tag f d3" x="425" y="188" text-anchor="middle">I ship production AI systems: LLM &amp; RAG pipelines, agents, and the APIs around them.</text>
  <text class="sub f d3" x="425" y="212" text-anchor="middle">B.Tech, NIT Kurukshetra &#8217;26  ·  Gemini CLI contributor</text>
</svg>