<svg width="850" height="300" viewBox="0 0 850 300" xmlns="http://www.w3.org/2000/svg" role="img" aria-label="Rithvick Kumar — AI/ML, Full-Stack, Backend Engineer">
<defs>
  <clipPath id="scene"><rect x="14" y="14" width="822" height="272" rx="9"/></clipPath>
  <radialGradient id="moon" cx="50%" cy="50%" r="50%"><stop offset="0" stop-color="#20293380"/><stop offset="1" stop-color="#20293300"/></radialGradient>
  <style>
    .f{animation:fi 1s ease both}.d1{animation-delay:.15s}.d2{animation-delay:.35s}.d3{animation-delay:.6s}
    @keyframes fi{from{opacity:0;transform:translateY(7px)}to{opacity:1;transform:none}}
    .sn{animation-name:fall;animation-timing-function:linear;animation-iteration-count:infinite}
    @keyframes fall{0%{transform:translateY(-14px);opacity:0}14%{opacity:.7}86%{opacity:.7}100%{transform:translateY(66px);opacity:0}}
    .kick{font-family:'Segoe UI', -apple-system, 'Helvetica Neue', Arial, sans-serif;font-weight:600;font-size:12px;fill:#7A828E;letter-spacing:3.6px}
    .name{font-family:'Segoe UI', -apple-system, 'Helvetica Neue', Arial, sans-serif;font-weight:600;font-size:56px;fill:#F4F6F8;letter-spacing:-1.2px}
    .tag{font-family:'Segoe UI', -apple-system, 'Helvetica Neue', Arial, sans-serif;font-weight:400;font-size:15.5px;fill:#B7BEC8}
    .sub{font-family:'Segoe UI', -apple-system, 'Helvetica Neue', Arial, sans-serif;font-weight:400;font-size:13px;fill:#828A96;letter-spacing:.3px}
  </style>
</defs>
  <rect width="850" height="300" fill="#0D1117"/>
  <g clip-path="url(#scene)">
    <rect x="14" y="14" width="822" height="272" fill="#0B0F15"/>
    <circle cx="688" cy="74" r="60" fill="url(#moon)"/>
    <circle cx="688" cy="74" r="15" fill="#161C25"/>
    <!-- mountains: back, mid, front(Everest) -->
    <path d="M 14 286 L 14 248 L 150 224 L 300 250 L 470 214 L 620 244 L 760 220 L 836 242 L 836 286 Z" fill="#141A22"/>
    <path d="M 14 286 L 14 262 L 120 244 L 260 266 L 410 240 L 560 262 L 690 244 L 836 264 L 836 286 Z" fill="#10151C"/>
    <path d="M 14 286 L 14 270 L 130 256 L 250 272 L 360 258 L 470 268 L 560 250 L 628 258 L 662 196 L 700 250 L 786 244 L 836 262 L 836 286 Z" fill="#0A0E13"/>
    <path d="M 640 224 L 662 196 L 684 224 L 672 220 L 662 210 L 652 220 Z" fill="#39424E"/>
    <circle class="sn" cx="86.2" cy="142.8" r="1.86" fill="#DCE3EC" opacity="0.38" style="animation-duration:11.1s;animation-delay:-7.6s"/><circle class="sn" cx="694.1" cy="109.1" r="1.75" fill="#DCE3EC" opacity="0.52" style="animation-duration:12.4s;animation-delay:-1.0s"/><circle class="sn" cx="826.6" cy="181.0" r="1.89" fill="#DCE3EC" opacity="0.74" style="animation-duration:10.8s;animation-delay:-8.5s"/><circle class="sn" cx="121.1" cy="76.9" r="1.27" fill="#DCE3EC" opacity="0.62" style="animation-duration:7.9s;animation-delay:-0.5s"/><circle class="sn" cx="137.3" cy="115.2" r="0.99" fill="#DCE3EC" opacity="0.38" style="animation-duration:12.2s;animation-delay:-8.3s"/><circle class="sn" cx="461.1" cy="31.1" r="1.72" fill="#DCE3EC" opacity="0.66" style="animation-duration:9.0s;animation-delay:-10.9s"/><circle class="sn" cx="543.4" cy="163.7" r="0.73" fill="#DCE3EC" opacity="0.49" style="animation-duration:8.0s;animation-delay:-8.8s"/><circle class="sn" cx="756.1" cy="180.1" r="1.07" fill="#DCE3EC" opacity="0.64" style="animation-duration:6.1s;animation-delay:-9.3s"/><circle class="sn" cx="756.2" cy="30.4" r="0.90" fill="#DCE3EC" opacity="0.43" style="animation-duration:12.7s;animation-delay:-4.8s"/><circle class="sn" cx="495.2" cy="180.0" r="0.85" fill="#DCE3EC" opacity="0.38" style="animation-duration:7.1s;animation-delay:-3.7s"/><circle class="sn" cx="208.6" cy="54.7" r="1.32" fill="#DCE3EC" opacity="0.39" style="animation-duration:11.5s;animation-delay:-5.5s"/><circle class="sn" cx="390.6" cy="220.0" r="1.49" fill="#DCE3EC" opacity="0.34" style="animation-duration:10.7s;animation-delay:-8.1s"/><circle class="sn" cx="814.3" cy="214.5" r="1.77" fill="#DCE3EC" opacity="0.37" style="animation-duration:11.8s;animation-delay:-6.2s"/><circle class="sn" cx="480.0" cy="229.9" r="1.61" fill="#DCE3EC" opacity="0.63" style="animation-duration:9.9s;animation-delay:-8.4s"/><circle class="sn" cx="658.5" cy="164.8" r="1.83" fill="#DCE3EC" opacity="0.60" style="animation-duration:9.1s;animation-delay:-5.1s"/><circle class="sn" cx="590.5" cy="44.9" r="1.43" fill="#DCE3EC" opacity="0.43" style="animation-duration:6.3s;animation-delay:-11.7s"/><circle class="sn" cx="592.6" cy="119.8" r="1.42" fill="#DCE3EC" opacity="0.65" style="animation-duration:12.5s;animation-delay:-6.4s"/><circle class="sn" cx="413.2" cy="139.9" r="1.43" fill="#DCE3EC" opacity="0.61" style="animation-duration:8.7s;animation-delay:-11.4s"/><circle class="sn" cx="812.7" cy="152.9" r="1.41" fill="#DCE3EC" opacity="0.43" style="animation-duration:7.8s;animation-delay:-7.2s"/><circle class="sn" cx="107.1" cy="142.0" r="1.41" fill="#DCE3EC" opacity="0.49" style="animation-duration:10.4s;animation-delay:-9.7s"/><circle class="sn" cx="484.3" cy="143.2" r="1.10" fill="#DCE3EC" opacity="0.54" style="animation-duration:9.1s;animation-delay:-8.3s"/><circle class="sn" cx="727.1" cy="24.1" r="1.88" fill="#DCE3EC" opacity="0.47" style="animation-duration:10.5s;animation-delay:-0.9s"/><circle class="sn" cx="815.9" cy="150.4" r="1.10" fill="#DCE3EC" opacity="0.74" style="animation-duration:11.5s;animation-delay:-6.8s"/><circle class="sn" cx="22.0" cy="118.4" r="1.45" fill="#DCE3EC" opacity="0.39" style="animation-duration:7.0s;animation-delay:-5.0s"/><circle class="sn" cx="799.8" cy="30.7" r="1.37" fill="#DCE3EC" opacity="0.32" style="animation-duration:12.9s;animation-delay:-4.7s"/><circle class="sn" cx="99.3" cy="116.7" r="1.68" fill="#DCE3EC" opacity="0.57" style="animation-duration:7.8s;animation-delay:-1.9s"/><circle class="sn" cx="759.8" cy="206.9" r="0.81" fill="#DCE3EC" opacity="0.72" style="animation-duration:12.9s;animation-delay:-6.7s"/><circle class="sn" cx="366.8" cy="147.5" r="0.99" fill="#DCE3EC" opacity="0.50" style="animation-duration:8.2s;animation-delay:-4.1s"/><circle class="sn" cx="111.6" cy="211.7" r="0.88" fill="#DCE3EC" opacity="0.46" style="animation-duration:6.3s;animation-delay:-11.7s"/><circle class="sn" cx="594.8" cy="38.1" r="0.71" fill="#DCE3EC" opacity="0.32" style="animation-duration:7.9s;animation-delay:-2.4s"/><circle class="sn" cx="500.0" cy="110.8" r="0.84" fill="#DCE3EC" opacity="0.67" style="animation-duration:7.0s;animation-delay:-4.8s"/><circle class="sn" cx="708.0" cy="207.9" r="1.56" fill="#DCE3EC" opacity="0.44" style="animation-duration:12.7s;animation-delay:-8.0s"/><circle class="sn" cx="28.9" cy="99.1" r="1.42" fill="#DCE3EC" opacity="0.74" style="animation-duration:7.7s;animation-delay:-11.9s"/><circle class="sn" cx="372.0" cy="198.4" r="1.65" fill="#DCE3EC" opacity="0.71" style="animation-duration:8.0s;animation-delay:-9.8s"/><circle class="sn" cx="525.9" cy="150.8" r="1.05" fill="#DCE3EC" opacity="0.36" style="animation-duration:11.9s;animation-delay:-2.5s"/><circle class="sn" cx="115.2" cy="55.7" r="1.48" fill="#DCE3EC" opacity="0.63" style="animation-duration:6.6s;animation-delay:-10.2s"/><circle class="sn" cx="383.4" cy="22.8" r="1.39" fill="#DCE3EC" opacity="0.64" style="animation-duration:8.7s;animation-delay:-6.7s"/><circle class="sn" cx="506.3" cy="171.1" r="1.41" fill="#DCE3EC" opacity="0.57" style="animation-duration:6.7s;animation-delay:-1.9s"/><circle class="sn" cx="804.1" cy="102.3" r="1.74" fill="#DCE3EC" opacity="0.63" style="animation-duration:7.5s;animation-delay:-7.3s"/><circle class="sn" cx="736.8" cy="111.9" r="1.36" fill="#DCE3EC" opacity="0.40" style="animation-duration:8.5s;animation-delay:-7.3s"/><circle class="sn" cx="747.7" cy="106.7" r="1.76" fill="#DCE3EC" opacity="0.47" style="animation-duration:6.1s;animation-delay:-11.3s"/><circle class="sn" cx="529.6" cy="132.8" r="1.51" fill="#DCE3EC" opacity="0.35" style="animation-duration:10.7s;animation-delay:-6.0s"/><circle class="sn" cx="782.6" cy="175.4" r="1.03" fill="#DCE3EC" opacity="0.68" style="animation-duration:8.2s;animation-delay:-11.2s"/><circle class="sn" cx="514.7" cy="88.0" r="0.83" fill="#DCE3EC" opacity="0.66" style="animation-duration:9.9s;animation-delay:-11.8s"/><circle class="sn" cx="793.4" cy="135.2" r="1.43" fill="#DCE3EC" opacity="0.72" style="animation-duration:10.8s;animation-delay:-2.6s"/><circle class="sn" cx="134.2" cy="149.9" r="0.78" fill="#DCE3EC" opacity="0.38" style="animation-duration:8.6s;animation-delay:-10.2s"/>
  </g>
  <rect x="14.5" y="14.5" width="821" height="271" rx="9" fill="none" stroke="#23262D" stroke-width="1"/>
  <path d="M 30 14 L 14 14 L 14 30" stroke="#6C90C0" stroke-width="1.5" fill="none" opacity="0.7"/>
  <path d="M 820 14 L 836 14 L 836 30" stroke="#6C90C0" stroke-width="1.5" fill="none" opacity="0.7"/>
  <path d="M 30 286 L 14 286 L 14 270" stroke="#6C90C0" stroke-width="1.5" fill="none" opacity="0.7"/>
  <path d="M 820 286 L 836 286 L 836 270" stroke="#6C90C0" stroke-width="1.5" fill="none" opacity="0.7"/>
  <text class="kick f d1" x="425" y="70" text-anchor="middle">AI / ML  ·  FULL-STACK  ·  BACKEND ENGINEER</text>
  <text class="name f d2" x="425" y="128" text-anchor="middle">Rithvick Kumar</text>
  <g class="f d2">
    <line x1="371" y1="152" x2="412" y2="152" stroke="#2E333B" stroke-width="1"/>
    <path d="M 425 148 L 429 152 L 425 156 L 421 152 Z" fill="#6C90C0"/>
    <line x1="438" y1="152" x2="479" y2="152" stroke="#2E333B" stroke-width="1"/>
  </g>
  <text class="tag f d3" x="425" y="188" text-anchor="middle">I ship production AI systems: LLM &amp; RAG pipelines, agents, and the APIs around them.</text>
  <text class="sub f d3" x="425" y="212" text-anchor="middle">B.Tech, NIT Kurukshetra &#8217;26  ·  Gemini CLI contributor</text>
</svg>