<svg width="850" height="60" viewBox="0 0 850 60" xmlns="http://www.w3.org/2000/svg" role="img" aria-label="GitHub Stats">
<defs>
  <clipPath id="scene"><rect x="6" y="6" width="838" height="48" rx="7"/></clipPath>
  <style>.sn{animation-name:fall;animation-timing-function:linear;animation-iteration-count:infinite}@keyframes fall{0%{transform:translateY(-12px);opacity:0}14%{opacity:.6}86%{opacity:.6}100%{transform:translateY(58px);opacity:0}}.k{font-family:'Segoe UI', -apple-system, 'Helvetica Neue', Arial, sans-serif;font-weight:600;font-size:13px;fill:#F0F1F3;letter-spacing:3px}.f{animation:fi .8s ease both}@keyframes fi{from{opacity:0}to{opacity:1}}</style>
</defs>
  <rect width="850" height="60" fill="#0D1117"/>
  <g clip-path="url(#scene)"><rect x="6" y="6" width="838" height="48" fill="#0B0F15"/><circle class="sn" cx="303.9" cy="29.8" r="1.09" fill="#DCE3EC" opacity="0.30" style="animation-duration:9.3s;animation-delay:-11.8s"/><circle class="sn" cx="389.7" cy="12.2" r="0.96" fill="#DCE3EC" opacity="0.47" style="animation-duration:11.6s;animation-delay:-7.3s"/><circle class="sn" cx="746.0" cy="12.8" r="0.94" fill="#DCE3EC" opacity="0.43" style="animation-duration:11.6s;animation-delay:-0.8s"/><circle class="sn" cx="65.5" cy="22.6" r="1.58" fill="#DCE3EC" opacity="0.43" style="animation-duration:6.8s;animation-delay:-3.1s"/><circle class="sn" cx="573.9" cy="45.9" r="0.82" fill="#DCE3EC" opacity="0.24" style="animation-duration:6.9s;animation-delay:-3.1s"/><circle class="sn" cx="407.7" cy="13.2" r="1.11" fill="#DCE3EC" opacity="0.42" style="animation-duration:12.4s;animation-delay:-7.2s"/><circle class="sn" cx="334.8" cy="38.5" r="0.77" fill="#DCE3EC" opacity="0.48" style="animation-duration:8.5s;animation-delay:-5.7s"/><circle class="sn" cx="248.2" cy="40.5" r="1.56" fill="#DCE3EC" opacity="0.46" style="animation-duration:9.9s;animation-delay:-10.7s"/><circle class="sn" cx="536.9" cy="27.5" r="1.65" fill="#DCE3EC" opacity="0.44" style="animation-duration:12.3s;animation-delay:-10.5s"/><circle class="sn" cx="211.6" cy="31.4" r="1.25" fill="#DCE3EC" opacity="0.45" style="animation-duration:8.1s;animation-delay:-5.5s"/><circle class="sn" cx="636.5" cy="14.9" r="1.04" fill="#DCE3EC" opacity="0.48" style="animation-duration:10.9s;animation-delay:-4.0s"/><circle class="sn" cx="625.3" cy="35.7" r="0.87" fill="#DCE3EC" opacity="0.25" style="animation-duration:8.6s;animation-delay:-4.4s"/><circle class="sn" cx="151.2" cy="30.5" r="1.32" fill="#DCE3EC" opacity="0.31" style="animation-duration:13.0s;animation-delay:-3.3s"/><circle class="sn" cx="675.0" cy="20.4" r="1.34" fill="#DCE3EC" opacity="0.24" style="animation-duration:11.7s;animation-delay:-12.0s"/></g>
  <rect x="6.5" y="6.5" width="837" height="47" rx="7" fill="none" stroke="#23262D"/>
  <path d="M 17 6 L 6 6 L 6 17" stroke="#6C90C0" stroke-width="1.5" fill="none" opacity="0.7"/><path d="M 833 6 L 844 6 L 844 17" stroke="#6C90C0" stroke-width="1.5" fill="none" opacity="0.7"/><path d="M 17 54 L 6 54 L 6 43" stroke="#6C90C0" stroke-width="1.5" fill="none" opacity="0.7"/><path d="M 833 54 L 844 54 L 844 43" stroke="#6C90C0" stroke-width="1.5" fill="none" opacity="0.7"/>
  <path class="f" d="M 343.6 26 L 346.6 30 L 343.6 34 L 340.6 30 Z" fill="#6C90C0"/>
  <text class="k f" x="425" y="34.5" text-anchor="middle">GITHUB STATS</text>
  <path class="f" d="M 506.4 26 L 509.4 30 L 506.4 34 L 503.4 30 Z" fill="#6C90C0"/>
</svg>