<svg width="850" height="60" viewBox="0 0 850 60" xmlns="http://www.w3.org/2000/svg" role="img" aria-label="Tech Stack">
<defs>
  <clipPath id="scene"><rect x="6" y="6" width="838" height="48" rx="7"/></clipPath>
  <style>.sn{animation-name:fall;animation-timing-function:linear;animation-iteration-count:infinite}@keyframes fall{0%{transform:translateY(-12px);opacity:0}14%{opacity:.6}86%{opacity:.6}100%{transform:translateY(58px);opacity:0}}.k{font-family:'Segoe UI', -apple-system, 'Helvetica Neue', Arial, sans-serif;font-weight:600;font-size:13px;fill:#F0F1F3;letter-spacing:3px}.f{animation:fi .8s ease both}@keyframes fi{from{opacity:0}to{opacity:1}}</style>
</defs>
  <rect width="850" height="60" fill="#0D1117"/>
  <g clip-path="url(#scene)"><rect x="6" y="6" width="838" height="48" fill="#0B0F15"/><circle class="sn" cx="730.0" cy="35.0" r="1.11" fill="#DCE3EC" opacity="0.41" style="animation-duration:12.9s;animation-delay:-5.8s"/><circle class="sn" cx="563.7" cy="41.8" r="0.77" fill="#DCE3EC" opacity="0.32" style="animation-duration:10.1s;animation-delay:-2.0s"/><circle class="sn" cx="138.0" cy="15.4" r="1.15" fill="#DCE3EC" opacity="0.49" style="animation-duration:6.9s;animation-delay:-2.4s"/><circle class="sn" cx="32.0" cy="44.6" r="0.77" fill="#DCE3EC" opacity="0.41" style="animation-duration:10.6s;animation-delay:-3.0s"/><circle class="sn" cx="603.2" cy="44.6" r="0.74" fill="#DCE3EC" opacity="0.37" style="animation-duration:10.2s;animation-delay:-10.4s"/><circle class="sn" cx="471.6" cy="19.7" r="1.22" fill="#DCE3EC" opacity="0.25" style="animation-duration:9.1s;animation-delay:-10.9s"/><circle class="sn" cx="493.2" cy="32.4" r="1.64" fill="#DCE3EC" opacity="0.38" style="animation-duration:8.5s;animation-delay:-5.0s"/><circle class="sn" cx="251.7" cy="44.7" r="1.63" fill="#DCE3EC" opacity="0.28" style="animation-duration:12.6s;animation-delay:-6.1s"/><circle class="sn" cx="113.7" cy="18.9" r="0.73" fill="#DCE3EC" opacity="0.45" style="animation-duration:7.0s;animation-delay:-6.0s"/><circle class="sn" cx="743.4" cy="13.9" r="1.09" fill="#DCE3EC" opacity="0.40" style="animation-duration:8.8s;animation-delay:-8.8s"/><circle class="sn" cx="120.1" cy="44.4" r="0.78" fill="#DCE3EC" opacity="0.27" style="animation-duration:11.1s;animation-delay:-12.2s"/><circle class="sn" cx="341.4" cy="43.2" r="1.49" fill="#DCE3EC" opacity="0.44" style="animation-duration:9.0s;animation-delay:-3.5s"/><circle class="sn" cx="652.1" cy="24.0" r="1.32" fill="#DCE3EC" opacity="0.46" style="animation-duration:9.0s;animation-delay:-5.1s"/><circle class="sn" cx="318.5" cy="18.5" r="1.37" fill="#DCE3EC" opacity="0.37" style="animation-duration:10.6s;animation-delay:-11.1s"/></g>
  <rect x="6.5" y="6.5" width="837" height="47" rx="7" fill="none" stroke="#23262D"/>
  <path d="M 17 6 L 6 6 L 6 17" stroke="#6C90C0" stroke-width="1.5" fill="none" opacity="0.7"/><path d="M 833 6 L 844 6 L 844 17" stroke="#6C90C0" stroke-width="1.5" fill="none" opacity="0.7"/><path d="M 17 54 L 6 54 L 6 43" stroke="#6C90C0" stroke-width="1.5" fill="none" opacity="0.7"/><path d="M 833 54 L 844 54 L 844 43" stroke="#6C90C0" stroke-width="1.5" fill="none" opacity="0.7"/>
  <path class="f" d="M 353.75 26 L 356.75 30 L 353.75 34 L 350.75 30 Z" fill="#6C90C0"/>
  <text class="k f" x="425" y="34.5" text-anchor="middle">TECH STACK</text>
  <path class="f" d="M 496.25 26 L 499.25 30 L 496.25 34 L 493.25 30 Z" fill="#6C90C0"/>
</svg>