<svg width="850" height="60" viewBox="0 0 850 60" xmlns="http://www.w3.org/2000/svg" role="img" aria-label="Featured Projects">
<defs>
  <clipPath id="scene"><rect x="6" y="6" width="838" height="48" rx="7"/></clipPath>
  <style>.sn{animation-name:fall;animation-timing-function:linear;animation-iteration-count:infinite}@keyframes fall{0%{transform:translateY(-12px);opacity:0}14%{opacity:.6}86%{opacity:.6}100%{transform:translateY(58px);opacity:0}}.k{font-family:'Segoe UI', -apple-system, 'Helvetica Neue', Arial, sans-serif;font-weight:600;font-size:13px;fill:#F0F1F3;letter-spacing:3px}.f{animation:fi .8s ease both}@keyframes fi{from{opacity:0}to{opacity:1}}</style>
</defs>
  <rect width="850" height="60" fill="#0D1117"/>
  <g clip-path="url(#scene)"><rect x="6" y="6" width="838" height="48" fill="#0B0F15"/><circle class="sn" cx="516.7" cy="44.4" r="1.60" fill="#DCE3EC" opacity="0.37" style="animation-duration:7.8s;animation-delay:-9.5s"/><circle class="sn" cx="388.3" cy="35.1" r="0.72" fill="#DCE3EC" opacity="0.23" style="animation-duration:11.3s;animation-delay:-5.8s"/><circle class="sn" cx="364.1" cy="38.1" r="0.98" fill="#DCE3EC" opacity="0.32" style="animation-duration:9.3s;animation-delay:-5.7s"/><circle class="sn" cx="413.2" cy="31.4" r="1.08" fill="#DCE3EC" opacity="0.40" style="animation-duration:9.8s;animation-delay:-2.2s"/><circle class="sn" cx="308.8" cy="25.8" r="1.18" fill="#DCE3EC" opacity="0.46" style="animation-duration:8.0s;animation-delay:-10.1s"/><circle class="sn" cx="615.2" cy="38.5" r="1.37" fill="#DCE3EC" opacity="0.29" style="animation-duration:9.7s;animation-delay:-5.9s"/><circle class="sn" cx="714.7" cy="14.8" r="1.60" fill="#DCE3EC" opacity="0.26" style="animation-duration:12.7s;animation-delay:-9.6s"/><circle class="sn" cx="365.2" cy="19.2" r="0.76" fill="#DCE3EC" opacity="0.42" style="animation-duration:12.6s;animation-delay:-3.4s"/><circle class="sn" cx="555.6" cy="20.6" r="1.18" fill="#DCE3EC" opacity="0.50" style="animation-duration:11.6s;animation-delay:-9.1s"/><circle class="sn" cx="608.4" cy="38.0" r="0.82" fill="#DCE3EC" opacity="0.28" style="animation-duration:7.4s;animation-delay:-8.3s"/><circle class="sn" cx="688.9" cy="18.6" r="0.86" fill="#DCE3EC" opacity="0.26" style="animation-duration:9.1s;animation-delay:-8.4s"/><circle class="sn" cx="93.1" cy="22.5" r="1.59" fill="#DCE3EC" opacity="0.25" style="animation-duration:10.3s;animation-delay:-10.3s"/><circle class="sn" cx="32.4" cy="35.9" r="1.16" fill="#DCE3EC" opacity="0.30" style="animation-duration:11.6s;animation-delay:-2.0s"/><circle class="sn" cx="397.4" cy="21.1" r="1.50" fill="#DCE3EC" opacity="0.38" style="animation-duration:7.2s;animation-delay:-10.0s"/></g>
  <rect x="6.5" y="6.5" width="837" height="47" rx="7" fill="none" stroke="#23262D"/>
  <path d="M 17 6 L 6 6 L 6 17" stroke="#6C90C0" stroke-width="1.5" fill="none" opacity="0.7"/><path d="M 833 6 L 844 6 L 844 17" stroke="#6C90C0" stroke-width="1.5" fill="none" opacity="0.7"/><path d="M 17 54 L 6 54 L 6 43" stroke="#6C90C0" stroke-width="1.5" fill="none" opacity="0.7"/><path d="M 833 54 L 844 54 L 844 43" stroke="#6C90C0" stroke-width="1.5" fill="none" opacity="0.7"/>
  <path class="f" d="M 318.225 26 L 321.225 30 L 318.225 34 L 315.225 30 Z" fill="#6C90C0"/>
  <text class="k f" x="425" y="34.5" text-anchor="middle">FEATURED PROJECTS</text>
  <path class="f" d="M 531.775 26 L 534.775 30 L 531.775 34 L 528.775 30 Z" fill="#6C90C0"/>
</svg>