<svg width="850" height="230" viewBox="0 0 850 230" fill="none" xmlns="http://www.w3.org/2000/svg" role="img" aria-label="GitHub statistics for Rithvickkr">
  <defs><style>
    .fade{animation:rise .6s ease both}@keyframes rise{from{opacity:0;transform:translateY(6px)}to{opacity:1;transform:none}}
    .num{font:700 30px 'Segoe UI', Ubuntu, 'Helvetica Neue', Sans-Serif;fill:#EAECEF}
    .lbl{font:400 11.5px 'Segoe UI', Ubuntu, 'Helvetica Neue', Sans-Serif;fill:#8B949E;letter-spacing:.4px}
    .llabel{font:600 11px 'Segoe UI', Ubuntu, 'Helvetica Neue', Sans-Serif;fill:#8B949E;letter-spacing:2px}
    .lname{font:600 13px 'Segoe UI', Ubuntu, 'Helvetica Neue', Sans-Serif;fill:#C9D1D9}
    .lpct{font:400 13px 'Segoe UI', Ubuntu, 'Helvetica Neue', Sans-Serif;fill:#8B949E}
  </style></defs>
  <rect x="0.5" y="0.5" width="849" height="229" rx="12" fill="#0D1117" stroke="#8B949E" stroke-opacity="0.26"/>
  <g class="fade" style="animation-delay:0.10s"><text class="num" x="100.8" y="64" text-anchor="middle">7</text><text class="lbl" x="100.8" y="86" text-anchor="middle">Total Stars</text></g><g class="fade" style="animation-delay:0.16s"><text class="num" x="230.5" y="64" text-anchor="middle">36</text><text class="lbl" x="230.5" y="86" text-anchor="middle">Repositories</text></g><g class="fade" style="animation-delay:0.22s"><text class="num" x="360.2" y="64" text-anchor="middle">3</text><text class="lbl" x="360.2" y="86" text-anchor="middle">Followers</text></g><g class="fade" style="animation-delay:0.28s"><text class="num" x="489.8" y="64" text-anchor="middle">852</text><text class="lbl" x="489.8" y="86" text-anchor="middle">Commits (2026)</text></g><g class="fade" style="animation-delay:0.34s"><text class="num" x="619.5" y="64" text-anchor="middle">24</text><text class="lbl" x="619.5" y="86" text-anchor="middle">Pull Requests</text></g><g class="fade" style="animation-delay:0.40s"><text class="num" x="749.2" y="64" text-anchor="middle">746</text><text class="lbl" x="749.2" y="86" text-anchor="middle">Contributions</text></g>
  <line x1="36" y1="112" x2="814" y2="112" stroke="#8B949E" stroke-opacity="0.16"/>
  <text class="llabel" x="36" y="136">MOST USED LANGUAGES</text>
  <clipPath id="rnd"><rect x="36" y="150" width="778" height="10" rx="5"/></clipPath>
  <g clip-path="url(#rnd)"><rect x="36.0" y="150" width="313.3" height="10" fill="#EAECEF"/><rect x="349.3" y="150" width="235.0" height="10" fill="#AEB4BE"/><rect x="584.3" y="150" width="104.4" height="10" fill="#828A96"/><rect x="688.7" y="150" width="78.3" height="10" fill="#5C636E"/><rect x="767.0" y="150" width="26.1" height="10" fill="#3A3F46"/><rect x="793.1" y="150" width="20.9" height="10" fill="#262B31"/></g>
  <g class="fade" style="animation-delay:0.20s"><circle cx="41" cy="186" r="5" fill="#EAECEF"/><text class="lname" x="54" y="190">TypeScript</text><text class="lpct" x="269.3333333333333" y="190" text-anchor="end">40.3%</text></g><g class="fade" style="animation-delay:0.26s"><circle cx="300.3333333333333" cy="186" r="5" fill="#AEB4BE"/><text class="lname" x="313.3333333333333" y="190">Python</text><text class="lpct" x="528.6666666666666" y="190" text-anchor="end">30.2%</text></g><g class="fade" style="animation-delay:0.32s"><circle cx="559.6666666666666" cy="186" r="5" fill="#828A96"/><text class="lname" x="572.6666666666666" y="190">Jupyter Notebook</text><text class="lpct" x="788" y="190" text-anchor="end">13.4%</text></g><g class="fade" style="animation-delay:0.38s"><circle cx="41" cy="210" r="5" fill="#5C636E"/><text class="lname" x="54" y="214">CSS</text><text class="lpct" x="269.3333333333333" y="214" text-anchor="end">10.1%</text></g><g class="fade" style="animation-delay:0.44s"><circle cx="300.3333333333333" cy="210" r="5" fill="#3A3F46"/><text class="lname" x="313.3333333333333" y="214">JavaScript</text><text class="lpct" x="528.6666666666666" y="214" text-anchor="end">3.4%</text></g><g class="fade" style="animation-delay:0.50s"><circle cx="559.6666666666666" cy="210" r="5" fill="#262B31"/><text class="lname" x="572.6666666666666" y="214">HTML</text><text class="lpct" x="788" y="214" text-anchor="end">2.7%</text></g>
</svg>