<svg width="850" height="236" viewBox="0 0 850 236" fill="none" xmlns="http://www.w3.org/2000/svg" role="img" aria-label="GitHub statistics for Rithvickkr">
  <defs>
    <clipPath id="scene"><rect x="6" y="6" width="838" height="224" rx="10"/></clipPath>
    <clipPath id="rnd"><rect x="36" y="150" width="778" height="10" rx="5"/></clipPath>
    <style>
    .sn{animation-name:fall;animation-timing-function:linear;animation-iteration-count:infinite}@keyframes fall{0%{transform:translateY(-12px);opacity:0}14%{opacity:.6}86%{opacity:.6}100%{transform:translateY(58px);opacity:0}}
    .fade{animation:rise .6s ease both}@keyframes rise{from{opacity:0;transform:translateY(6px)}to{opacity:1;transform:none}}
    .num{font:700 30px 'Segoe UI', Ubuntu, 'Helvetica Neue', Sans-Serif;fill:#EAECEF}
    .lbl{font:400 11.5px 'Segoe UI', Ubuntu, 'Helvetica Neue', Sans-Serif;fill:#8B949E;letter-spacing:.4px}
    .llabel{font:600 11px 'Segoe UI', Ubuntu, 'Helvetica Neue', Sans-Serif;fill:#8B949E;letter-spacing:2px}
    .lname{font:600 13px 'Segoe UI', Ubuntu, 'Helvetica Neue', Sans-Serif;fill:#C9D1D9}
    .lpct{font:400 13px 'Segoe UI', Ubuntu, 'Helvetica Neue', Sans-Serif;fill:#8B949E}
  </style></defs>
  <rect width="850" height="236" fill="#0D1117"/>
  <g clip-path="url(#scene)"><rect x="6" y="6" width="838" height="224" fill="#0B0F15"/><circle class="sn" cx="741.1" cy="88.6" r="1.06" fill="#DCE3EC" opacity="0.26" style="animation-duration:11.3s;animation-delay:-3.0s"/><circle class="sn" cx="403.5" cy="13.2" r="0.70" fill="#DCE3EC" opacity="0.29" style="animation-duration:8.4s;animation-delay:-12.8s"/><circle class="sn" cx="325.1" cy="18.9" r="1.30" fill="#DCE3EC" opacity="0.37" style="animation-duration:6.2s;animation-delay:-2.0s"/><circle class="sn" cx="506.0" cy="16.3" r="0.76" fill="#DCE3EC" opacity="0.36" style="animation-duration:11.1s;animation-delay:-1.6s"/><circle class="sn" cx="382.5" cy="37.9" r="1.30" fill="#DCE3EC" opacity="0.34" style="animation-duration:12.3s;animation-delay:-11.0s"/><circle class="sn" cx="380.6" cy="79.5" r="1.01" fill="#DCE3EC" opacity="0.36" style="animation-duration:12.5s;animation-delay:-5.3s"/><circle class="sn" cx="336.4" cy="73.5" r="1.08" fill="#DCE3EC" opacity="0.37" style="animation-duration:9.6s;animation-delay:-9.6s"/><circle class="sn" cx="219.9" cy="29.0" r="1.21" fill="#DCE3EC" opacity="0.36" style="animation-duration:7.9s;animation-delay:-6.6s"/><circle class="sn" cx="376.0" cy="122.9" r="1.33" fill="#DCE3EC" opacity="0.25" style="animation-duration:11.9s;animation-delay:-5.2s"/><circle class="sn" cx="562.1" cy="22.2" r="0.71" fill="#DCE3EC" opacity="0.34" style="animation-duration:9.0s;animation-delay:-12.3s"/><circle class="sn" cx="328.0" cy="77.3" r="1.53" fill="#DCE3EC" opacity="0.39" style="animation-duration:8.8s;animation-delay:-5.7s"/><circle class="sn" cx="532.5" cy="81.2" r="1.05" fill="#DCE3EC" opacity="0.32" style="animation-duration:10.3s;animation-delay:-1.4s"/><circle class="sn" cx="180.1" cy="37.0" r="1.07" fill="#DCE3EC" opacity="0.41" style="animation-duration:10.1s;animation-delay:-1.5s"/><circle class="sn" cx="21.1" cy="119.2" r="1.55" fill="#DCE3EC" opacity="0.31" style="animation-duration:12.0s;animation-delay:-5.0s"/><circle class="sn" cx="661.6" cy="60.7" r="1.24" fill="#DCE3EC" opacity="0.25" style="animation-duration:10.1s;animation-delay:-10.1s"/><circle class="sn" cx="362.2" cy="88.6" r="1.37" fill="#DCE3EC" opacity="0.31" style="animation-duration:11.5s;animation-delay:-5.9s"/><circle class="sn" cx="573.6" cy="28.1" r="0.78" fill="#DCE3EC" opacity="0.28" style="animation-duration:9.1s;animation-delay:-5.6s"/><circle class="sn" cx="411.8" cy="21.1" r="0.90" fill="#DCE3EC" opacity="0.38" style="animation-duration:10.3s;animation-delay:-12.8s"/></g>
  <rect x="6.5" y="6.5" width="837" height="223" rx="10" fill="none" stroke="#8B949E" stroke-opacity="0.3"/>
  <path d="M 19 6 L 6 6 L 6 19" stroke="#6C90C0" stroke-width="1.5" fill="none" opacity="0.7"/><path d="M 831 6 L 844 6 L 844 19" stroke="#6C90C0" stroke-width="1.5" fill="none" opacity="0.7"/><path d="M 19 230 L 6 230 L 6 217" stroke="#6C90C0" stroke-width="1.5" fill="none" opacity="0.7"/><path d="M 831 230 L 844 230 L 844 217" stroke="#6C90C0" stroke-width="1.5" fill="none" opacity="0.7"/>
  <g class="fade" style="animation-delay:0.10s"><text class="num" x="100.8" y="64" text-anchor="middle">5</text><text class="lbl" x="100.8" y="86" text-anchor="middle">Total Stars</text></g><g class="fade" style="animation-delay:0.16s"><text class="num" x="230.5" y="64" text-anchor="middle">36</text><text class="lbl" x="230.5" y="86" text-anchor="middle">Repositories</text></g><g class="fade" style="animation-delay:0.22s"><text class="num" x="360.2" y="64" text-anchor="middle">3</text><text class="lbl" x="360.2" y="86" text-anchor="middle">Followers</text></g><g class="fade" style="animation-delay:0.28s"><text class="num" x="489.8" y="64" text-anchor="middle">852</text><text class="lbl" x="489.8" y="86" text-anchor="middle">Commits (2026)</text></g><g class="fade" style="animation-delay:0.34s"><text class="num" x="619.5" y="64" text-anchor="middle">24</text><text class="lbl" x="619.5" y="86" text-anchor="middle">Pull Requests</text></g><g class="fade" style="animation-delay:0.40s"><text class="num" x="749.2" y="64" text-anchor="middle">746</text><text class="lbl" x="749.2" y="86" text-anchor="middle">Contributions</text></g>
  <line x1="36" y1="112" x2="814" y2="112" stroke="#8B949E" stroke-opacity="0.16"/>
  <text class="llabel" x="36" y="136">MOST USED LANGUAGES</text>
  <g clip-path="url(#rnd)"><rect x="36.0" y="150" width="373.4" height="10" fill="#EAECEF"/><rect x="409.4" y="150" width="280.1" height="10" fill="#AEB4BE"/><rect x="689.5" y="150" width="93.4" height="10" fill="#828A96"/><rect x="782.9" y="150" width="31.1" height="10" fill="#5C636E"/></g>
  <g class="fade" style="animation-delay:0.20s"><circle cx="41" cy="186" r="5" fill="#EAECEF"/><text class="lname" x="54" y="190">TypeScript</text><text class="lpct" x="269.3333333333333" y="190" text-anchor="end">48.0%</text></g><g class="fade" style="animation-delay:0.26s"><circle cx="300.3333333333333" cy="186" r="5" fill="#AEB4BE"/><text class="lname" x="313.3333333333333" y="190">Python</text><text class="lpct" x="528.6666666666666" y="190" text-anchor="end">36.0%</text></g><g class="fade" style="animation-delay:0.32s"><circle cx="559.6666666666666" cy="186" r="5" fill="#828A96"/><text class="lname" x="572.6666666666666" y="190">CSS</text><text class="lpct" x="788" y="190" text-anchor="end">12.0%</text></g><g class="fade" style="animation-delay:0.38s"><circle cx="41" cy="210" r="5" fill="#5C636E"/><text class="lname" x="54" y="214">JavaScript</text><text class="lpct" x="269.3333333333333" y="214" text-anchor="end">4.0%</text></g>
</svg>