<svg width="850" height="264" viewBox="0 0 850 264" fill="none" xmlns="http://www.w3.org/2000/svg" role="img" aria-label="GitHub statistics for Rithvickkr">
  <defs>
    <clipPath id="scene"><rect x="6" y="6" width="838" height="252" rx="10"/></clipPath>
    <clipPath id="rnd"><rect x="36" y="150" width="778" height="10" rx="5"/></clipPath>
    <style>
    .sn{animation-name:fall;animation-timing-function:linear;animation-iteration-count:infinite}@keyframes fall{0%{transform:translateY(-12px);opacity:0}14%{opacity:.6}86%{opacity:.6}100%{transform:translateY(58px);opacity:0}}
    .fade{animation:rise .6s ease both}@keyframes rise{from{opacity:0;transform:translateY(6px)}to{opacity:1;transform:none}}
    .num{font:700 30px 'Segoe UI', Ubuntu, 'Helvetica Neue', Sans-Serif;fill:#EAECEF}
    .lbl{font:400 11.5px 'Segoe UI', Ubuntu, 'Helvetica Neue', Sans-Serif;fill:#8B949E;letter-spacing:.4px}
    .llabel{font:600 11px 'Segoe UI', Ubuntu, 'Helvetica Neue', Sans-Serif;fill:#8B949E;letter-spacing:2px}
    .lname{font:600 13px 'Segoe UI', Ubuntu, 'Helvetica Neue', Sans-Serif;fill:#C9D1D9}
    .lpct{font:400 13px 'Segoe UI', Ubuntu, 'Helvetica Neue', Sans-Serif;fill:#8B949E}
  </style></defs>
  <rect width="850" height="264" fill="#0D1117"/>
  <g clip-path="url(#scene)"><rect x="6" y="6" width="838" height="252" fill="#0B0F15"/><circle class="sn" cx="417.3" cy="109.0" r="1.13" fill="#DCE3EC" opacity="0.40" style="animation-duration:11.5s;animation-delay:-0.3s"/><circle class="sn" cx="359.5" cy="56.2" r="1.22" fill="#DCE3EC" opacity="0.22" style="animation-duration:8.4s;animation-delay:-10.9s"/><circle class="sn" cx="828.5" cy="76.4" r="1.44" fill="#DCE3EC" opacity="0.32" style="animation-duration:12.8s;animation-delay:-7.8s"/><circle class="sn" cx="253.5" cy="113.9" r="1.44" fill="#DCE3EC" opacity="0.24" style="animation-duration:11.8s;animation-delay:-1.0s"/><circle class="sn" cx="584.2" cy="108.3" r="1.41" fill="#DCE3EC" opacity="0.37" style="animation-duration:9.1s;animation-delay:-4.9s"/><circle class="sn" cx="700.8" cy="116.0" r="1.08" fill="#DCE3EC" opacity="0.24" style="animation-duration:11.0s;animation-delay:-9.2s"/><circle class="sn" cx="640.7" cy="76.2" r="1.48" fill="#DCE3EC" opacity="0.26" style="animation-duration:12.8s;animation-delay:-7.4s"/><circle class="sn" cx="161.7" cy="51.4" r="0.82" fill="#DCE3EC" opacity="0.36" style="animation-duration:12.7s;animation-delay:-5.2s"/><circle class="sn" cx="720.3" cy="21.4" r="1.59" fill="#DCE3EC" opacity="0.27" style="animation-duration:12.9s;animation-delay:-4.3s"/><circle class="sn" cx="583.8" cy="22.2" r="0.76" fill="#DCE3EC" opacity="0.39" style="animation-duration:7.5s;animation-delay:-12.2s"/><circle class="sn" cx="349.4" cy="94.0" r="1.56" fill="#DCE3EC" opacity="0.30" style="animation-duration:8.6s;animation-delay:-6.5s"/><circle class="sn" cx="33.8" cy="127.7" r="1.52" fill="#DCE3EC" opacity="0.35" style="animation-duration:8.7s;animation-delay:-4.2s"/><circle class="sn" cx="342.4" cy="31.5" r="0.73" fill="#DCE3EC" opacity="0.37" style="animation-duration:9.9s;animation-delay:-10.3s"/><circle class="sn" cx="761.9" cy="31.4" r="1.46" fill="#DCE3EC" opacity="0.40" style="animation-duration:11.5s;animation-delay:-2.6s"/><circle class="sn" cx="27.0" cy="97.0" r="0.81" fill="#DCE3EC" opacity="0.28" style="animation-duration:6.7s;animation-delay:-8.2s"/><circle class="sn" cx="360.8" cy="122.5" r="1.59" fill="#DCE3EC" opacity="0.40" style="animation-duration:10.8s;animation-delay:-11.2s"/><circle class="sn" cx="533.3" cy="23.8" r="0.78" fill="#DCE3EC" opacity="0.34" style="animation-duration:7.5s;animation-delay:-12.6s"/><circle class="sn" cx="485.4" cy="121.7" r="1.16" fill="#DCE3EC" opacity="0.23" style="animation-duration:11.0s;animation-delay:-8.3s"/><path d="M 6 258 L 6 244 L 303 250 L 560 246 L 600 224 L 644 246 L 722 249 L 844 243 L 844 258 Z" fill="#0A0E13"/><path d="M 586 238 L 600 224 L 614 238 L 606 236 L 600 230 L 594 236 Z" fill="#39424E"/></g>
  <rect x="6.5" y="6.5" width="837" height="251" rx="10" fill="none" stroke="#8B949E" stroke-opacity="0.3"/>
  <path d="M 19 6 L 6 6 L 6 19" stroke="#6C90C0" stroke-width="1.5" fill="none" opacity="0.7"/><path d="M 831 6 L 844 6 L 844 19" stroke="#6C90C0" stroke-width="1.5" fill="none" opacity="0.7"/><path d="M 19 258 L 6 258 L 6 245" stroke="#6C90C0" stroke-width="1.5" fill="none" opacity="0.7"/><path d="M 831 258 L 844 258 L 844 245" stroke="#6C90C0" stroke-width="1.5" fill="none" opacity="0.7"/>
  <g class="fade" style="animation-delay:0.10s"><text class="num" x="100.8" y="64" text-anchor="middle">7</text><text class="lbl" x="100.8" y="86" text-anchor="middle">Total Stars</text></g><g class="fade" style="animation-delay:0.16s"><text class="num" x="230.5" y="64" text-anchor="middle">36</text><text class="lbl" x="230.5" y="86" text-anchor="middle">Repositories</text></g><g class="fade" style="animation-delay:0.22s"><text class="num" x="360.2" y="64" text-anchor="middle">3</text><text class="lbl" x="360.2" y="86" text-anchor="middle">Followers</text></g><g class="fade" style="animation-delay:0.28s"><text class="num" x="489.8" y="64" text-anchor="middle">852</text><text class="lbl" x="489.8" y="86" text-anchor="middle">Commits (2026)</text></g><g class="fade" style="animation-delay:0.34s"><text class="num" x="619.5" y="64" text-anchor="middle">24</text><text class="lbl" x="619.5" y="86" text-anchor="middle">Pull Requests</text></g><g class="fade" style="animation-delay:0.40s"><text class="num" x="749.2" y="64" text-anchor="middle">746</text><text class="lbl" x="749.2" y="86" text-anchor="middle">Contributions</text></g>
  <line x1="36" y1="112" x2="814" y2="112" stroke="#8B949E" stroke-opacity="0.16"/>
  <text class="llabel" x="36" y="136">MOST USED LANGUAGES</text>
  <g clip-path="url(#rnd)"><rect x="36.0" y="150" width="313.3" height="10" fill="#EAECEF"/><rect x="349.3" y="150" width="235.0" height="10" fill="#AEB4BE"/><rect x="584.3" y="150" width="104.4" height="10" fill="#828A96"/><rect x="688.7" y="150" width="78.3" height="10" fill="#5C636E"/><rect x="767.0" y="150" width="26.1" height="10" fill="#3A3F46"/><rect x="793.1" y="150" width="20.9" height="10" fill="#262B31"/></g>
  <g class="fade" style="animation-delay:0.20s"><circle cx="41" cy="186" r="5" fill="#EAECEF"/><text class="lname" x="54" y="190">TypeScript</text><text class="lpct" x="269.3333333333333" y="190" text-anchor="end">40.3%</text></g><g class="fade" style="animation-delay:0.26s"><circle cx="300.3333333333333" cy="186" r="5" fill="#AEB4BE"/><text class="lname" x="313.3333333333333" y="190">Python</text><text class="lpct" x="528.6666666666666" y="190" text-anchor="end">30.2%</text></g><g class="fade" style="animation-delay:0.32s"><circle cx="559.6666666666666" cy="186" r="5" fill="#828A96"/><text class="lname" x="572.6666666666666" y="190">Jupyter Notebook</text><text class="lpct" x="788" y="190" text-anchor="end">13.4%</text></g><g class="fade" style="animation-delay:0.38s"><circle cx="41" cy="210" r="5" fill="#5C636E"/><text class="lname" x="54" y="214">CSS</text><text class="lpct" x="269.3333333333333" y="214" text-anchor="end">10.1%</text></g><g class="fade" style="animation-delay:0.44s"><circle cx="300.3333333333333" cy="210" r="5" fill="#3A3F46"/><text class="lname" x="313.3333333333333" y="214">JavaScript</text><text class="lpct" x="528.6666666666666" y="214" text-anchor="end">3.4%</text></g><g class="fade" style="animation-delay:0.50s"><circle cx="559.6666666666666" cy="210" r="5" fill="#262B31"/><text class="lname" x="572.6666666666666" y="214">HTML</text><text class="lpct" x="788" y="214" text-anchor="end">2.7%</text></g>
</svg>